<svg xmlns="http://www.w3.org/2000/svg" xmlns:xlink="http://www.w3.org/1999/xlink" width="2000" zoomAndPan="magnify" viewBox="0 0 1500 1499.999933" height="2000" preserveAspectRatio="xMidYMid meet" version="1.0"><path fill="#7da1bd" d="M 764.128906 825.6875 C 935.390625 825.6875 1106.640625 825.898438 1277.890625 825.453125 C 1302.59375 825.390625 1325.894531 845.957031 1325.15625 872.832031 C 1324.355469 902.238281 1324.980469 931.6875 1324.972656 961.109375 C 1324.964844 987.765625 1305 1007.710938 1278.191406 1007.726562 C 1210.464844 1007.757812 1142.742188 1007.730469 1075.027344 1007.730469 L 250.664062 1007.730469 C 227.265625 1007.730469 208.890625 993.53125 203.894531 971.429688 C 203.199219 968.359375 203.097656 965.097656 203.089844 961.925781 C 203.035156 931.789062 203.035156 901.648438 203.0625 871.511719 C 203.074219 845.605469 222.933594 825.695312 248.777344 825.695312 C 420.5625 825.679688 592.351562 825.6875 764.136719 825.6875 " fill-opacity="1" fill-rule="nonzero"/><path fill="#9abb57" d="M 255.273438 755.539062 C 278.164062 732.320312 372.28125 621.066406 270.816406 448.289062 C 270.34375 447.488281 270.296875 446.449219 270.75 445.46875 C 274.128906 438.292969 291.636719 408.910156 353.953125 403.425781 C 355.109375 403.324219 356.171875 403.707031 356.785156 404.488281 C 368.503906 419.582031 436.21875 572 263.609375 765.867188 C 262.570312 767.035156 260.964844 767.671875 259.558594 767.453125 L 253.007812 761.324219 C 250.371094 760.925781 253.207031 757.636719 255.28125 755.539062 " fill-opacity="1" fill-rule="nonzero"/><path fill="#9abb57" d="M 323.566406 358.574219 C 323.566406 386.417969 300.996094 408.988281 273.152344 408.988281 C 245.308594 408.988281 222.742188 386.417969 222.742188 358.574219 C 222.742188 330.734375 245.308594 308.164062 273.152344 308.164062 C 300.996094 308.164062 323.566406 330.734375 323.566406 358.574219 " fill-opacity="1" fill-rule="nonzero"/><path fill="#9abb57" d="M 550.007812 563.492188 L 677.136719 563.675781 L 676.910156 713.601562 C 636.859375 737.351562 605.429688 754.53125 551.742188 754.449219 C 476.277344 754.324219 417.578125 715.75 417.679688 643.832031 L 417.878906 510.113281 C 417.980469 441.226562 479.332031 399.785156 551.757812 399.898438 C 595.824219 399.957031 635.8125 413.699219 665.660156 442.613281 L 640.277344 481.070312 C 617.007812 460.765625 583.601562 447.046875 551.6875 447 C 509.140625 446.9375 470.613281 471.1875 470.558594 510.195312 L 470.359375 643.917969 C 470.296875 685.953125 506.734375 707.285156 551.8125 707.355469 C 582.203125 707.394531 601.457031 702.363281 624.265625 689.726562 L 624.382812 607.167969 L 549.929688 607.058594 L 549.992188 563.5 Z M 550.007812 563.492188 " fill-opacity="1" fill-rule="nonzero"/><path fill="#00446c" d="M 981.90625 655.816406 C 981.796875 723.6875 926.035156 753.996094 859.179688 753.894531 C 805.996094 753.816406 753.351562 732.464844 727.082031 691.402344 L 763.09375 659.035156 C 779.773438 685.402344 822.28125 706.734375 855.71875 706.785156 C 892.6875 706.839844 929.179688 693.722656 929.230469 655.734375 C 929.292969 616.226562 881.6875 607.546875 842.714844 595.332031 C 780.445312 575.988281 739.445312 553.644531 739.535156 493.875 C 739.632812 428.027344 793.867188 400.253906 860.21875 400.355469 C 908.84375 400.433594 945.28125 419.726562 972.597656 443.574219 L 942.652344 482.523438 C 925.460938 466.292969 890.539062 447.5 860.15625 447.453125 C 825.210938 447.402344 792.269531 459.507812 792.21875 493.949219 C 792.160156 529.914062 835.1875 540.105469 872.660156 550.796875 C 940.503906 569.636719 982.003906 590.46875 981.90625 655.808594 " fill-opacity="1" fill-rule="nonzero"/><path fill="#00446c" d="M 1191.453125 402.871094 L 1305.917969 750.507812 L 1250.707031 750.425781 L 1221.464844 659.207031 L 1095.351562 659.023438 L 1065.839844 750.144531 L 1009.105469 750.0625 L 1128.644531 402.78125 Z M 1207.855469 616.140625 L 1158.953125 460.058594 L 1109.585938 615.992188 Z M 1207.855469 616.140625 " fill-opacity="1" fill-rule="nonzero"/><path fill="#ffffff" d="M 447.40625 867.699219 C 462.785156 867.699219 474.421875 876.125 474.421875 891.511719 L 474.421875 901.683594 C 474.421875 916.398438 462.257812 923.886719 447.671875 923.886719 L 431.617188 923.886719 L 431.617188 958.671875 L 417.707031 958.671875 L 417.707031 867.714844 L 447.402344 867.714844 Z M 460.503906 891.511719 C 460.503906 884.289062 454.621094 880.144531 447.398438 880.144531 L 431.613281 880.144531 L 431.613281 911.4375 L 447.398438 911.4375 C 454.222656 911.4375 460.503906 908.636719 460.503906 901.675781 L 460.503906 891.507812 Z M 460.503906 891.511719 " fill-opacity="1" fill-rule="nonzero"/><path fill="#ffffff" d="M 524.980469 892.851562 L 522.164062 905.285156 C 520.695312 904.75 517.878906 904.347656 515.476562 904.347656 C 508.789062 904.347656 502.902344 909.96875 502.902344 917.988281 L 502.902344 958.660156 L 488.984375 958.660156 L 488.984375 893.105469 L 499.019531 893.105469 L 501.695312 904.070312 C 504.105469 897.519531 510.664062 891.765625 517.75 891.765625 C 520.695312 891.765625 522.96875 892.035156 524.972656 892.839844 " fill-opacity="1" fill-rule="nonzero"/><path fill="#ffffff" d="M 535.539062 867.699219 L 549.71875 867.699219 L 549.71875 882.414062 L 535.539062 882.414062 Z M 535.675781 893.121094 L 549.585938 893.121094 L 549.585938 958.660156 L 535.675781 958.660156 Z M 535.675781 893.121094 " fill-opacity="1" fill-rule="nonzero"/><path fill="#ffffff" d="M 624.757812 915.722656 L 624.757812 958.664062 L 610.839844 958.664062 L 610.839844 917.867188 C 610.839844 909.832031 606.695312 904.085938 598.675781 904.085938 C 590.65625 904.085938 581.816406 911.039062 581.816406 919.066406 L 581.816406 958.664062 L 567.90625 958.664062 L 567.90625 893.121094 L 580.082031 893.121094 L 581.816406 903.550781 C 586.898438 896.328125 593.1875 891.773438 602.285156 891.773438 C 617.667969 891.773438 624.757812 900.335938 624.757812 915.71875 " fill-opacity="1" fill-rule="nonzero"/><path fill="#ffffff" d="M 680.128906 944.617188 L 683.210938 954.65625 C 680.128906 956.125 670.507812 959.46875 665.285156 959.46875 C 653.644531 959.46875 646.554688 954.65625 646.554688 942.886719 L 646.554688 903.019531 L 634.378906 903.019531 L 634.378906 893.125 L 646.691406 893.125 L 646.691406 873.730469 L 660.472656 873.730469 L 660.472656 893.125 L 677.195312 893.125 L 677.195312 903.019531 L 660.472656 903.019531 L 660.472656 941.28125 C 660.472656 944.761719 662.476562 947.570312 665.957031 947.570312 C 670.371094 947.570312 679.464844 945.027344 680.136719 944.625 " fill-opacity="1" fill-rule="nonzero"/><path fill="#ffffff" d="M 798.511719 921.210938 L 785.53125 935.121094 L 801.1875 950.777344 L 791.285156 960.132812 L 776.832031 945.160156 C 769.753906 954.519531 760.785156 960.003906 748.34375 960.003906 C 730.691406 960.003906 719.320312 952.375 719.320312 936.0625 C 719.320312 923.351562 731.097656 915.324219 741.257812 907.160156 L 730.953125 895.789062 L 730.953125 883.355469 C 730.953125 872.78125 740.179688 866.363281 751.285156 866.363281 C 764.660156 866.363281 773.351562 873.050781 773.351562 885.890625 C 773.351562 895.523438 768.140625 902.480469 760.648438 908.234375 L 776.566406 925.753906 L 788.871094 912.378906 Z M 767.734375 934.992188 L 750.210938 915.71875 C 743.257812 921.875 733.898438 926.820312 733.898438 935.519531 C 733.898438 943.011719 738.84375 947.15625 747.410156 947.15625 C 756.503906 947.15625 760.925781 941.539062 767.742188 934.992188 M 743.394531 891.113281 L 751.550781 900.34375 C 756.105469 896.726562 760.78125 891.917969 760.78125 886.292969 C 760.78125 880.671875 757.4375 877.734375 751.683594 877.734375 C 746.464844 877.734375 743.386719 881.078125 743.386719 884.558594 L 743.386719 891.113281 Z M 743.394531 891.113281 " fill-opacity="1" fill-rule="nonzero"/><path fill="#ffffff" d="M 854.140625 895.523438 L 854.140625 930.84375 C 854.140625 942.214844 862.695312 947.5625 874.203125 947.5625 C 883.171875 947.5625 891.59375 945.152344 897.609375 939.796875 L 903.761719 950.097656 C 895.207031 957.722656 885.703125 959.996094 874.203125 959.996094 C 854.945312 959.996094 840.230469 950.097656 840.230469 930.835938 L 840.230469 895.515625 C 840.230469 877.328125 855.617188 866.355469 874.074219 866.355469 C 887.984375 866.355469 895.480469 870.234375 903.507812 878.660156 L 895.734375 888.15625 C 889.980469 882.675781 883.164062 878.796875 874.074219 878.796875 C 863.246094 878.796875 854.140625 884.949219 854.140625 895.515625 " fill-opacity="1" fill-rule="nonzero"/><path fill="#ffffff" d="M 970.640625 915.855469 L 970.640625 935.65625 C 970.640625 951.03125 957.53125 959.996094 942.414062 959.996094 C 927.292969 959.996094 913.789062 951.03125 913.789062 935.65625 L 913.789062 915.855469 C 913.789062 900.75 926.222656 891.773438 942.550781 891.773438 C 958.878906 891.773438 970.640625 900.742188 970.640625 915.855469 M 956.734375 915.855469 C 956.734375 908.371094 949.910156 904.214844 942.558594 904.214844 C 935.203125 904.214844 927.707031 908.363281 927.707031 915.855469 L 927.707031 935.65625 C 927.707031 943.410156 934.660156 947.417969 942.417969 947.417969 C 950.179688 947.417969 956.734375 943.410156 956.734375 935.65625 Z M 956.734375 915.855469 " fill-opacity="1" fill-rule="nonzero"/><path fill="#ffffff" d="M 1041.933594 915.722656 L 1041.933594 935.257812 C 1041.933594 949.964844 1031.761719 960.003906 1016.78125 960.003906 C 1008.753906 960.003906 1002.601562 957.992188 998.460938 951.710938 L 998.460938 988.230469 L 984.542969 988.230469 L 984.542969 893.125 L 994.851562 893.125 L 997.652344 901.015625 C 1002.601562 895 1008.355469 891.789062 1016.78125 891.789062 C 1031.761719 891.789062 1041.933594 901.285156 1041.933594 915.730469 M 1028.015625 916.257812 C 1028.015625 907.566406 1021.332031 904.085938 1013.4375 904.085938 C 1005.542969 904.085938 998.460938 908.761719 998.460938 915.855469 L 998.460938 935.25 C 998.460938 943.140625 1005.417969 947.554688 1013.4375 947.691406 C 1020.796875 947.691406 1028.015625 943.546875 1028.015625 935.25 L 1028.015625 916.253906 Z M 1028.015625 916.257812 " fill-opacity="1" fill-rule="nonzero"/><path fill="#ffffff" d="M 1072.433594 960.273438 L 1049.691406 893.121094 L 1064.269531 893.121094 L 1079.386719 944.226562 L 1094.234375 893.121094 L 1108.816406 893.121094 L 1083.796875 966.960938 C 1078.714844 981.675781 1066.410156 986.890625 1053.296875 987.160156 L 1051.703125 976.460938 C 1058.253906 976.324219 1068.015625 972.582031 1070.824219 965.492188 L 1072.4375 960.273438 Z M 1072.433594 960.273438 " fill-opacity="1" fill-rule="nonzero"/><path fill="#00446c" d="M 252.601562 1066.382812 L 261.71875 1066.382812 C 261.71875 1066.382812 261.753906 1125.988281 261.753906 1125.988281 L 252.636719 1125.988281 C 252.636719 1125.988281 252.621094 1101.179688 252.621094 1101.179688 L 225.183594 1101.195312 L 225.199219 1126.007812 L 216.082031 1126.007812 C 216.082031 1126.007812 216.046875 1066.402344 216.046875 1066.402344 L 225.164062 1066.402344 C 225.164062 1066.402344 225.179688 1093.050781 225.179688 1093.050781 L 252.617188 1093.039062 Z M 252.601562 1066.382812 " fill-opacity="1" fill-rule="nonzero"/><path fill="#00446c" d="M 290.214844 1082.140625 C 295.296875 1082.140625 299.285156 1083.417969 302.183594 1085.992188 C 305.082031 1088.5625 306.53125 1092.417969 306.53125 1097.5625 L 306.550781 1125.960938 L 299.183594 1125.960938 C 299.183594 1125.960938 297.773438 1120.269531 297.773438 1120.269531 C 296.320312 1122.84375 294.519531 1124.554688 292.390625 1125.398438 C 290.257812 1126.25 287.820312 1126.667969 285.074219 1126.675781 C 280.746094 1126.675781 277.429688 1125.425781 275.117188 1122.914062 C 272.808594 1120.398438 271.65625 1117.015625 271.648438 1112.75 L 271.648438 1103.980469 C 271.648438 1103.980469 297.410156 1099.492188 297.410156 1099.492188 L 297.410156 1097.5625 C 297.410156 1094.816406 296.703125 1092.851562 295.304688 1091.683594 C 293.902344 1090.523438 291.820312 1089.941406 289.074219 1089.941406 C 288.023438 1089.941406 286.886719 1090.070312 285.65625 1090.332031 C 284.425781 1090.601562 283.230469 1090.929688 282.058594 1091.339844 C 280.890625 1091.753906 279.777344 1092.191406 278.726562 1092.667969 C 277.675781 1093.132812 276.804688 1093.574219 276.097656 1093.976562 L 273.199219 1087.847656 C 274.25 1087.140625 275.453125 1086.453125 276.792969 1085.78125 C 278.128906 1085.105469 279.566406 1084.496094 281.082031 1083.941406 C 282.601562 1083.382812 284.152344 1082.945312 285.726562 1082.621094 C 287.304688 1082.296875 288.792969 1082.132812 290.195312 1082.132812 Z M 297.148438 1105.808594 L 280.761719 1108.625 L 280.761719 1112.304688 C 280.761719 1114.351562 281.359375 1115.945312 282.558594 1117.082031 C 283.761719 1118.222656 285.382812 1118.785156 287.425781 1118.785156 C 288.476562 1118.785156 289.578125 1118.640625 290.714844 1118.347656 C 291.855469 1118.050781 292.90625 1117.617188 293.875 1117.035156 C 294.835938 1116.453125 295.625 1115.75 296.238281 1114.925781 C 296.847656 1114.101562 297.15625 1113.140625 297.15625 1112.03125 L 297.15625 1105.808594 Z M 297.148438 1105.808594 " fill-opacity="1" fill-rule="nonzero"/><path fill="#00446c" d="M 343.078125 1082.984375 L 343.078125 1087.628906 C 343.078125 1087.628906 324.78125 1118.320312 324.78125 1118.320312 L 344.417969 1118.304688 L 344.417969 1125.933594 C 344.417969 1125.933594 314.699219 1125.953125 314.699219 1125.953125 L 314.699219 1120.433594 C 314.699219 1120.433594 333.089844 1090.175781 333.089844 1090.175781 L 315.03125 1090.1875 L 315.03125 1083.007812 C 315.03125 1083.007812 343.078125 1082.984375 343.078125 1082.984375 Z M 343.078125 1082.984375 " fill-opacity="1" fill-rule="nonzero"/><path fill="#00446c" d="M 392.242188 1066.300781 C 395.507812 1066.300781 398.523438 1066.683594 401.269531 1067.433594 C 404.015625 1068.1875 406.398438 1069.355469 408.417969 1070.929688 C 410.4375 1072.507812 412.015625 1074.492188 413.15625 1076.886719 C 414.296875 1079.285156 414.871094 1082.113281 414.871094 1085.390625 L 414.886719 1106.867188 C 414.886719 1110.078125 414.273438 1112.882812 413.050781 1115.277344 C 411.824219 1117.671875 410.160156 1119.664062 408.0625 1121.246094 C 405.960938 1122.824219 403.488281 1123.992188 400.652344 1124.753906 C 397.816406 1125.515625 394.796875 1125.898438 391.582031 1125.898438 L 373.171875 1125.914062 L 373.140625 1066.300781 L 392.246094 1066.285156 Z M 405.753906 1085.382812 C 405.753906 1083.515625 405.398438 1081.894531 404.695312 1080.527344 C 403.996094 1079.160156 403.027344 1078.019531 401.796875 1077.121094 C 400.570312 1076.214844 399.132812 1075.550781 397.5 1075.109375 C 395.867188 1074.675781 394.109375 1074.457031 392.242188 1074.457031 L 382.070312 1074.457031 C 382.070312 1074.457031 382.097656 1117.761719 382.097656 1117.761719 L 391.566406 1117.761719 C 393.496094 1117.757812 395.308594 1117.558594 397.007812 1117.136719 C 398.703125 1116.734375 400.207031 1116.074219 401.515625 1115.167969 C 402.828125 1114.269531 403.867188 1113.128906 404.628906 1111.753906 C 405.390625 1110.382812 405.765625 1108.734375 405.765625 1106.8125 Z M 405.753906 1085.382812 " fill-opacity="1" fill-rule="nonzero"/><path fill="#00446c" d="M 443.285156 1118.601562 C 445.796875 1118.601562 448.242188 1118.148438 450.605469 1117.242188 C 452.972656 1116.335938 454.800781 1115.292969 456.082031 1114.117188 L 460.121094 1120.605469 C 457.667969 1122.824219 454.976562 1124.402344 452.058594 1125.34375 C 449.140625 1126.277344 446.039062 1126.75 442.769531 1126.757812 C 439.96875 1126.757812 437.34375 1126.441406 434.921875 1125.796875 C 432.496094 1125.15625 430.398438 1124.140625 428.613281 1122.773438 C 426.824219 1121.402344 425.410156 1119.691406 424.355469 1117.644531 C 423.304688 1115.601562 422.773438 1113.175781 422.773438 1110.367188 L 422.773438 1097.570312 C 422.769531 1095.117188 423.25 1092.929688 424.210938 1090.992188 C 425.171875 1089.0625 426.488281 1087.441406 428.152344 1086.125 C 429.8125 1084.8125 431.789062 1083.800781 434.070312 1083.09375 C 436.351562 1082.394531 438.773438 1082.042969 441.347656 1082.042969 C 443.746094 1082.042969 446.003906 1082.410156 448.140625 1083.136719 C 450.273438 1083.863281 452.128906 1084.878906 453.707031 1086.199219 C 455.285156 1087.511719 456.53125 1089.101562 457.4375 1090.972656 C 458.34375 1092.84375 458.796875 1094.953125 458.796875 1097.28125 L 458.796875 1104.121094 C 458.796875 1104.121094 431.894531 1108.082031 431.894531 1108.082031 L 431.894531 1110.355469 C 431.894531 1111.699219 432.230469 1112.882812 432.902344 1113.902344 C 433.574219 1114.925781 434.453125 1115.785156 435.53125 1116.484375 C 436.609375 1117.1875 437.824219 1117.707031 439.171875 1118.058594 C 440.515625 1118.414062 441.890625 1118.585938 443.292969 1118.585938 Z M 441.164062 1090.203125 C 439.933594 1090.203125 438.765625 1090.375 437.652344 1090.730469 C 436.542969 1091.082031 435.554688 1091.574219 434.675781 1092.214844 C 433.796875 1092.867188 433.109375 1093.636719 432.613281 1094.542969 C 432.121094 1095.449219 431.871094 1096.484375 431.871094 1097.652344 L 431.871094 1101.859375 C 431.871094 1101.859375 449.402344 1099.394531 449.402344 1099.394531 L 449.402344 1096.945312 C 449.402344 1094.664062 448.640625 1092.96875 447.117188 1091.855469 C 445.597656 1090.75 443.605469 1090.195312 441.15625 1090.195312 Z M 441.164062 1090.203125 " fill-opacity="1" fill-rule="nonzero"/><path fill="#00446c" d="M 482.972656 1074.394531 L 482.972656 1066.238281 C 482.972656 1066.238281 528.722656 1066.210938 528.722656 1066.210938 L 528.722656 1074.449219 C 528.722656 1074.449219 510.320312 1074.464844 510.320312 1074.464844 L 510.355469 1125.835938 L 501.242188 1125.835938 C 501.242188 1125.835938 501.207031 1074.472656 501.207031 1074.472656 Z M 482.972656 1074.394531 " fill-opacity="1" fill-rule="nonzero"/><path fill="#00446c" d="M 558.714844 1082.855469 L 567.832031 1082.855469 C 567.832031 1082.855469 567.851562 1110.898438 567.851562 1110.898438 C 567.851562 1113.410156 567.359375 1115.648438 566.363281 1117.605469 C 565.375 1119.570312 564.042969 1121.214844 562.378906 1122.554688 C 560.71875 1123.910156 558.769531 1124.925781 556.550781 1125.625 C 554.324219 1126.332031 551.964844 1126.683594 549.449219 1126.683594 C 546.9375 1126.683594 544.554688 1126.339844 542.304688 1125.632812 C 540.050781 1124.929688 538.09375 1123.914062 536.433594 1122.570312 C 534.761719 1121.230469 533.445312 1119.582031 532.484375 1117.617188 C 531.515625 1115.660156 531.035156 1113.421875 531.027344 1110.917969 L 531.007812 1082.867188 L 540.125 1082.867188 C 540.125 1082.867188 540.148438 1110.910156 540.148438 1110.910156 C 540.148438 1113.421875 541.066406 1115.324219 542.914062 1116.609375 C 544.753906 1117.894531 546.9375 1118.53125 549.445312 1118.53125 C 550.671875 1118.53125 551.839844 1118.375 552.953125 1118.050781 C 554.066406 1117.730469 555.039062 1117.226562 555.890625 1116.5625 C 556.734375 1115.886719 557.421875 1115.085938 557.949219 1114.152344 C 558.480469 1113.21875 558.742188 1112.132812 558.742188 1110.902344 L 558.71875 1082.855469 Z M 558.714844 1082.855469 " fill-opacity="1" fill-rule="nonzero"/><path fill="#00446c" d="M 596.628906 1100.355469 C 598.566406 1100.886719 600.324219 1101.484375 601.910156 1102.148438 C 603.496094 1102.828125 604.859375 1103.640625 606.007812 1104.601562 C 607.148438 1105.570312 608.046875 1106.703125 608.691406 1108.019531 C 609.339844 1109.332031 609.660156 1110.863281 609.660156 1112.621094 C 609.660156 1115.070312 609.226562 1117.179688 608.347656 1118.9375 C 607.46875 1120.6875 606.261719 1122.121094 604.71875 1123.234375 C 603.171875 1124.339844 601.359375 1125.164062 599.285156 1125.695312 C 597.210938 1126.214844 594.945312 1126.484375 592.496094 1126.484375 C 589.273438 1126.484375 586.210938 1125.84375 583.289062 1124.558594 C 580.363281 1123.277344 577.792969 1121.46875 575.570312 1119.128906 L 580.210938 1112.8125 C 580.910156 1113.574219 581.777344 1114.300781 582.800781 1115.007812 C 583.824219 1115.710938 584.921875 1116.347656 586.089844 1116.933594 C 587.257812 1117.515625 588.4375 1117.984375 589.640625 1118.332031 C 590.832031 1118.683594 591.960938 1118.855469 593.011719 1118.855469 C 594.058594 1118.855469 595.070312 1118.800781 596.039062 1118.683594 C 597 1118.558594 597.835938 1118.332031 598.539062 1117.976562 C 599.238281 1117.625 599.808594 1117.117188 600.246094 1116.4375 C 600.679688 1115.765625 600.898438 1114.90625 600.898438 1113.855469 C 600.898438 1112.625 600.550781 1111.679688 599.84375 1111.007812 C 599.140625 1110.332031 598.25 1109.777344 597.164062 1109.34375 C 596.085938 1108.914062 594.898438 1108.574219 593.613281 1108.34375 C 592.332031 1108.109375 591.101562 1107.8125 589.933594 1107.46875 C 588.003906 1106.941406 586.265625 1106.359375 584.714844 1105.71875 C 583.164062 1105.082031 581.851562 1104.269531 580.765625 1103.308594 C 579.683594 1102.347656 578.839844 1101.179688 578.21875 1099.808594 C 577.609375 1098.433594 577.300781 1096.753906 577.300781 1094.769531 C 577.300781 1092.550781 577.710938 1090.632812 578.554688 1089.027344 C 579.394531 1087.421875 580.535156 1086.109375 581.984375 1085.078125 C 583.429688 1084.054688 585.140625 1083.292969 587.125 1082.800781 C 589.101562 1082.296875 591.230469 1082.050781 593.511719 1082.042969 C 596.140625 1082.042969 598.785156 1082.613281 601.441406 1083.753906 C 604.097656 1084.894531 606.453125 1086.371094 608.5 1088.175781 L 604.039062 1094.574219 C 602.628906 1093.292969 600.890625 1092.199219 598.820312 1091.300781 C 596.746094 1090.394531 594.773438 1089.941406 592.898438 1089.941406 C 590.914062 1089.941406 589.335938 1090.277344 588.167969 1090.957031 C 587.003906 1091.628906 586.417969 1092.898438 586.417969 1094.769531 C 586.417969 1095.824219 586.753906 1096.648438 587.433594 1097.265625 C 588.109375 1097.878906 588.957031 1098.367188 589.988281 1098.714844 C 591.019531 1099.066406 592.117188 1099.355469 593.292969 1099.585938 C 594.464844 1099.820312 595.578125 1100.089844 596.636719 1100.371094 Z M 596.628906 1100.355469 " fill-opacity="1" fill-rule="nonzero"/><path fill="#00446c" d="M 657.320312 1066.136719 C 659.832031 1066.136719 662.171875 1066.464844 664.328125 1067.136719 C 666.492188 1067.816406 668.359375 1068.808594 669.941406 1070.117188 C 671.519531 1071.4375 672.761719 1073.070312 673.667969 1075.019531 C 674.574219 1076.984375 675.027344 1079.214844 675.035156 1081.730469 L 675.035156 1088.390625 C 675.035156 1090.785156 674.574219 1092.894531 673.640625 1094.707031 C 672.707031 1096.519531 671.449219 1098.035156 669.871094 1099.265625 C 668.292969 1100.496094 666.4375 1101.414062 664.308594 1102.03125 C 662.171875 1102.648438 659.914062 1102.953125 657.511719 1102.960938 L 646.992188 1102.960938 C 646.992188 1102.960938 647.007812 1125.753906 647.007812 1125.753906 L 637.886719 1125.753906 C 637.886719 1125.753906 637.851562 1066.148438 637.851562 1066.148438 L 657.3125 1066.136719 Z M 665.914062 1081.730469 C 665.914062 1079.339844 665.085938 1077.5 663.417969 1076.207031 C 661.746094 1074.925781 659.714844 1074.285156 657.324219 1074.285156 L 646.984375 1074.285156 C 646.984375 1074.285156 647 1094.800781 647 1094.800781 L 657.339844 1094.800781 C 658.453125 1094.796875 659.53125 1094.679688 660.582031 1094.445312 C 661.632812 1094.21875 662.550781 1093.828125 663.339844 1093.304688 C 664.128906 1092.785156 664.753906 1092.109375 665.230469 1091.292969 C 665.695312 1090.46875 665.929688 1089.507812 665.929688 1088.394531 L 665.929688 1081.734375 Z M 665.914062 1081.730469 " fill-opacity="1" fill-rule="nonzero"/><path fill="#00446c" d="M 703.433594 1081.886719 C 705.417969 1081.886719 706.996094 1082.121094 708.164062 1082.582031 L 706.332031 1090.648438 C 705.863281 1090.46875 705.21875 1090.324219 704.402344 1090.207031 C 703.585938 1090.09375 702.765625 1090.039062 701.949219 1090.039062 C 700.835938 1090.039062 699.785156 1090.257812 698.792969 1090.695312 C 697.800781 1091.144531 696.925781 1091.753906 696.160156 1092.542969 C 695.398438 1093.332031 694.800781 1094.273438 694.363281 1095.359375 C 693.929688 1096.441406 693.710938 1097.660156 693.710938 1099.003906 L 693.722656 1125.722656 L 684.605469 1125.722656 C 684.605469 1125.722656 684.578125 1082.773438 684.578125 1082.773438 L 691.148438 1082.773438 C 691.148438 1082.773438 692.90625 1089.867188 692.90625 1089.867188 C 693.3125 1088.820312 693.867188 1087.820312 694.570312 1086.832031 C 695.269531 1085.847656 696.085938 1084.996094 697.019531 1084.269531 C 697.953125 1083.546875 698.957031 1082.972656 700.042969 1082.53125 C 701.117188 1082.105469 702.246094 1081.878906 703.414062 1081.878906 Z M 703.433594 1081.886719 " fill-opacity="1" fill-rule="nonzero"/><path fill="#00446c" d="M 730.78125 1081.875 C 736.390625 1081.875 740.867188 1083.261719 744.199219 1086.035156 C 747.527344 1088.808594 749.195312 1092.679688 749.195312 1097.644531 L 749.195312 1110.617188 C 749.203125 1113.136719 748.710938 1115.378906 747.71875 1117.371094 C 746.726562 1119.355469 745.386719 1121.023438 743.691406 1122.371094 C 741.992188 1123.722656 740.023438 1124.753906 737.769531 1125.488281 C 735.519531 1126.222656 733.171875 1126.585938 730.71875 1126.59375 C 728.207031 1126.59375 725.808594 1126.230469 723.53125 1125.5 C 721.25 1124.773438 719.257812 1123.742188 717.5625 1122.398438 C 715.867188 1121.058594 714.507812 1119.390625 713.484375 1117.40625 C 712.460938 1115.414062 711.945312 1113.167969 711.945312 1110.648438 L 711.945312 1097.679688 C 711.941406 1095.226562 712.421875 1093.023438 713.382812 1091.058594 C 714.34375 1089.101562 715.675781 1087.433594 717.363281 1086.0625 C 719.0625 1084.679688 721.046875 1083.652344 723.324219 1082.9375 C 725.605469 1082.238281 728.089844 1081.886719 730.773438 1081.886719 Z M 740.085938 1097.664062 C 740.085938 1096.4375 739.816406 1095.351562 739.289062 1094.410156 C 738.765625 1093.476562 738.074219 1092.671875 737.230469 1091.992188 C 736.378906 1091.320312 735.402344 1090.828125 734.289062 1090.503906 C 733.175781 1090.175781 732.015625 1090.023438 730.78125 1090.023438 C 729.550781 1090.023438 728.359375 1090.179688 727.191406 1090.511719 C 726.023438 1090.832031 724.984375 1091.335938 724.078125 1092 C 723.171875 1092.679688 722.445312 1093.484375 721.890625 1094.417969 C 721.332031 1095.359375 721.058594 1096.441406 721.058594 1097.671875 L 721.058594 1110.683594 C 721.066406 1111.976562 721.328125 1113.101562 721.855469 1114.070312 C 722.378906 1115.03125 723.085938 1115.847656 723.964844 1116.484375 C 724.835938 1117.125 725.859375 1117.613281 727.03125 1117.933594 C 728.199219 1118.265625 729.429688 1118.414062 730.710938 1118.414062 C 731.941406 1118.414062 733.121094 1118.257812 734.261719 1117.929688 C 735.402344 1117.605469 736.398438 1117.117188 737.242188 1116.480469 C 738.085938 1115.832031 738.773438 1115.023438 739.300781 1114.0625 C 739.832031 1113.09375 740.09375 1111.960938 740.09375 1110.671875 L 740.09375 1097.660156 Z M 740.085938 1097.664062 " fill-opacity="1" fill-rule="nonzero"/><path fill="#00446c" d="M 769.203125 1126.722656 L 754.277344 1082.730469 L 763.835938 1082.730469 C 763.835938 1082.730469 773.765625 1116.203125 773.765625 1116.203125 L 783.472656 1082.710938 L 793.023438 1082.710938 C 793.023438 1082.710938 776.660156 1131.105469 776.660156 1131.105469 C 775.84375 1133.5 774.746094 1135.527344 773.378906 1137.203125 C 772.007812 1138.863281 770.449219 1140.230469 768.691406 1141.28125 C 766.9375 1142.335938 765.035156 1143.09375 762.996094 1143.566406 C 760.953125 1144.035156 758.84375 1144.292969 756.6875 1144.355469 L 755.628906 1137.34375 C 756.679688 1137.34375 757.855469 1137.1875 759.140625 1136.863281 C 760.429688 1136.542969 761.652344 1136.070312 762.820312 1135.457031 C 763.988281 1134.847656 765.050781 1134.097656 766.019531 1133.226562 C 766.980469 1132.347656 767.695312 1131.316406 768.160156 1130.15625 L 769.210938 1126.730469 Z M 769.203125 1126.722656 " fill-opacity="1" fill-rule="nonzero"/><path fill="#00446c" d="M 818.464844 1118.367188 C 820.984375 1118.367188 823.421875 1117.914062 825.78125 1117.007812 C 828.152344 1116.101562 829.976562 1115.058594 831.261719 1113.882812 L 835.304688 1120.371094 C 832.855469 1122.589844 830.164062 1124.167969 827.238281 1125.109375 C 824.320312 1126.042969 821.214844 1126.515625 817.949219 1126.523438 C 815.148438 1126.523438 812.523438 1126.207031 810.101562 1125.5625 C 807.675781 1124.925781 805.570312 1123.910156 803.785156 1122.542969 C 802 1121.167969 800.582031 1119.460938 799.527344 1117.414062 C 798.476562 1115.367188 797.945312 1112.941406 797.945312 1110.132812 L 797.945312 1097.335938 C 797.941406 1094.882812 798.421875 1092.695312 799.382812 1090.757812 C 800.34375 1088.828125 801.65625 1087.207031 803.324219 1085.890625 C 804.984375 1084.578125 806.960938 1083.570312 809.234375 1082.863281 C 811.515625 1082.160156 813.945312 1081.8125 816.511719 1081.8125 C 818.910156 1081.8125 821.167969 1082.175781 823.304688 1082.902344 C 825.4375 1083.632812 827.300781 1084.648438 828.878906 1085.964844 C 830.457031 1087.277344 831.703125 1088.871094 832.609375 1090.738281 C 833.515625 1092.613281 833.96875 1094.71875 833.96875 1097.046875 L 833.96875 1103.886719 C 833.96875 1103.886719 807.066406 1107.847656 807.066406 1107.847656 L 807.066406 1110.121094 C 807.066406 1111.464844 807.402344 1112.648438 808.074219 1113.671875 C 808.746094 1114.695312 809.625 1115.550781 810.710938 1116.253906 C 811.789062 1116.953125 813.003906 1117.476562 814.351562 1117.824219 C 815.6875 1118.183594 817.070312 1118.355469 818.46875 1118.355469 Z M 816.347656 1089.976562 C 815.121094 1089.976562 813.953125 1090.148438 812.839844 1090.503906 C 811.726562 1090.855469 810.738281 1091.347656 809.859375 1091.988281 C 808.980469 1092.640625 808.300781 1093.410156 807.800781 1094.316406 C 807.304688 1095.222656 807.058594 1096.257812 807.058594 1097.425781 L 807.058594 1101.632812 C 807.058594 1101.632812 824.59375 1099.167969 824.59375 1099.167969 L 824.59375 1096.71875 C 824.59375 1094.4375 823.824219 1092.742188 822.308594 1091.628906 C 820.792969 1090.523438 818.808594 1089.96875 816.347656 1089.96875 Z M 816.347656 1089.976562 " fill-opacity="1" fill-rule="nonzero"/><path fill="#00446c" d="M 859.558594 1089.949219 C 857.042969 1089.949219 854.972656 1090.605469 853.335938 1091.917969 C 851.703125 1093.238281 850.886719 1095.125 850.886719 1097.578125 L 850.886719 1110.726562 C 850.894531 1113.417969 851.769531 1115.351562 853.523438 1116.554688 C 855.28125 1117.75 857.496094 1118.347656 860.1875 1118.347656 C 862.289062 1118.347656 864.269531 1118.023438 866.109375 1117.378906 C 867.949219 1116.734375 869.773438 1115.675781 871.585938 1114.21875 L 875.183594 1121.050781 C 872.90625 1123.214844 870.496094 1124.664062 867.957031 1125.390625 C 865.40625 1126.125 862.648438 1126.488281 859.675781 1126.496094 C 857.042969 1126.496094 854.628906 1126.179688 852.4375 1125.535156 C 850.238281 1124.898438 848.359375 1123.910156 846.78125 1122.597656 C 845.199219 1121.285156 843.972656 1119.628906 843.09375 1117.644531 C 842.214844 1115.65625 841.773438 1113.355469 841.773438 1110.71875 L 841.773438 1097.570312 C 841.765625 1095.117188 842.214844 1092.914062 843.125 1090.949219 C 844.027344 1088.992188 845.277344 1087.324219 846.890625 1085.953125 C 848.496094 1084.570312 850.378906 1083.542969 852.539062 1082.828125 C 854.703125 1082.128906 857.039062 1081.777344 859.550781 1081.777344 C 861.417969 1081.777344 863.085938 1081.902344 864.550781 1082.167969 C 866.003906 1082.429688 867.351562 1082.820312 868.578125 1083.347656 C 869.808594 1083.878906 870.960938 1084.53125 872.039062 1085.320312 C 873.125 1086.101562 874.21875 1087.023438 875.328125 1088.078125 L 870.605469 1094.570312 C 869.082031 1093.105469 867.371094 1091.972656 865.476562 1091.15625 C 863.574219 1090.339844 861.605469 1089.933594 859.558594 1089.933594 Z M 859.558594 1089.949219 " fill-opacity="1" fill-rule="nonzero"/><path fill="#00446c" d="M 899.546875 1118.320312 C 900.246094 1118.320312 901.113281 1118.230469 902.128906 1118.050781 C 903.160156 1117.878906 904.148438 1117.671875 905.109375 1117.433594 C 906.070312 1117.207031 906.90625 1116.980469 907.609375 1116.773438 C 908.316406 1116.566406 908.71875 1116.4375 908.84375 1116.382812 L 910.863281 1122.953125 C 910.332031 1123.1875 909.59375 1123.484375 908.628906 1123.832031 C 907.667969 1124.183594 906.625 1124.539062 905.519531 1124.890625 C 904.40625 1125.242188 903.28125 1125.535156 902.140625 1125.769531 C 901.007812 1125.996094 899.992188 1126.121094 899.128906 1126.121094 C 895.269531 1126.121094 892.253906 1125.273438 890.09375 1123.578125 C 887.929688 1121.890625 886.84375 1119.117188 886.84375 1115.257812 L 886.832031 1089.128906 L 878.851562 1089.128906 C 878.851562 1089.128906 878.851562 1082.648438 878.851562 1082.648438 L 886.917969 1082.648438 C 886.917969 1082.648438 886.914062 1069.933594 886.914062 1069.933594 L 895.933594 1069.933594 C 895.933594 1069.933594 895.941406 1082.640625 895.941406 1082.640625 L 906.902344 1082.640625 C 906.902344 1082.640625 906.902344 1089.117188 906.902344 1089.117188 L 895.941406 1089.117188 C 895.941406 1089.117188 895.957031 1114.199219 895.957031 1114.199219 C 895.957031 1115.367188 896.265625 1116.347656 896.875 1117.132812 C 897.488281 1117.921875 898.378906 1118.3125 899.554688 1118.3125 Z M 899.546875 1118.320312 " fill-opacity="1" fill-rule="nonzero"/><path fill="#00446c" d="M 934.242188 1081.742188 C 939.851562 1081.742188 944.320312 1083.128906 947.660156 1085.902344 C 950.988281 1088.675781 952.65625 1092.550781 952.65625 1097.515625 L 952.65625 1110.484375 C 952.664062 1113.003906 952.175781 1115.25 951.179688 1117.242188 C 950.191406 1119.226562 948.851562 1120.894531 947.152344 1122.238281 C 945.453125 1123.59375 943.484375 1124.621094 941.238281 1125.355469 C 938.988281 1126.09375 936.636719 1126.457031 934.179688 1126.460938 C 931.667969 1126.460938 929.269531 1126.097656 927 1125.371094 C 924.710938 1124.644531 922.734375 1123.613281 921.03125 1122.265625 C 919.34375 1120.929688 917.976562 1119.261719 916.953125 1117.277344 C 915.921875 1115.285156 915.414062 1113.039062 915.414062 1110.519531 L 915.414062 1097.550781 C 915.40625 1095.097656 915.882812 1092.894531 916.851562 1090.929688 C 917.8125 1088.972656 919.136719 1087.304688 920.832031 1085.929688 C 922.519531 1084.550781 924.511719 1083.519531 926.785156 1082.808594 C 929.066406 1082.105469 931.550781 1081.757812 934.242188 1081.757812 Z M 943.539062 1097.542969 C 943.539062 1096.3125 943.269531 1095.226562 942.75 1094.289062 C 942.21875 1093.355469 941.535156 1092.550781 940.6875 1091.871094 C 939.839844 1091.199219 938.863281 1090.703125 937.75 1090.378906 C 936.644531 1090.050781 935.476562 1089.898438 934.25 1089.898438 C 933.019531 1089.898438 931.824219 1090.058594 930.652344 1090.386719 C 929.484375 1090.710938 928.445312 1091.210938 927.539062 1091.878906 C 926.632812 1092.558594 925.898438 1093.359375 925.34375 1094.292969 C 924.792969 1095.234375 924.519531 1096.320312 924.519531 1097.546875 L 924.519531 1110.558594 C 924.527344 1111.851562 924.792969 1112.976562 925.316406 1113.945312 C 925.84375 1114.90625 926.546875 1115.722656 927.425781 1116.363281 C 928.304688 1117 929.320312 1117.488281 930.492188 1117.8125 C 931.660156 1118.140625 932.890625 1118.292969 934.171875 1118.292969 C 935.402344 1118.292969 936.582031 1118.132812 937.722656 1117.804688 C 938.863281 1117.480469 939.859375 1116.992188 940.703125 1116.355469 C 941.554688 1115.710938 942.234375 1114.898438 942.761719 1113.9375 C 943.285156 1112.96875 943.546875 1111.835938 943.546875 1110.546875 L 943.546875 1097.535156 Z M 943.539062 1097.542969 " fill-opacity="1" fill-rule="nonzero"/><path fill="#00446c" d="M 980.136719 1100.125 C 982.070312 1100.652344 983.828125 1101.25 985.417969 1101.914062 C 987.003906 1102.59375 988.363281 1103.40625 989.507812 1104.367188 C 990.65625 1105.335938 991.546875 1106.46875 992.199219 1107.785156 C 992.84375 1109.097656 993.167969 1110.628906 993.167969 1112.386719 C 993.167969 1114.835938 992.734375 1116.945312 991.855469 1118.703125 C 990.976562 1120.453125 989.769531 1121.890625 988.222656 1123 C 986.679688 1124.105469 984.867188 1124.929688 982.792969 1125.460938 C 980.71875 1125.980469 978.453125 1126.25 976.003906 1126.25 C 972.78125 1126.25 969.71875 1125.609375 966.800781 1124.328125 C 963.875 1123.042969 961.300781 1121.238281 959.078125 1118.894531 L 963.71875 1112.578125 C 964.425781 1113.339844 965.292969 1114.070312 966.308594 1114.777344 C 967.332031 1115.476562 968.429688 1116.113281 969.597656 1116.699219 C 970.761719 1117.28125 971.945312 1117.75 973.140625 1118.097656 C 974.339844 1118.449219 975.46875 1118.621094 976.523438 1118.621094 C 977.574219 1118.621094 978.578125 1118.566406 979.539062 1118.449219 C 980.507812 1118.324219 981.335938 1118.097656 982.042969 1117.742188 C 982.746094 1117.390625 983.316406 1116.882812 983.746094 1116.203125 C 984.1875 1115.53125 984.398438 1114.671875 984.398438 1113.621094 C 984.398438 1112.394531 984.050781 1111.445312 983.347656 1110.773438 C 982.648438 1110.101562 981.757812 1109.542969 980.671875 1109.113281 C 979.59375 1108.679688 978.414062 1108.34375 977.128906 1108.109375 C 975.835938 1107.875 974.609375 1107.582031 973.441406 1107.238281 C 971.511719 1106.707031 969.773438 1106.125 968.222656 1105.484375 C 966.671875 1104.847656 965.359375 1104.039062 964.273438 1103.074219 C 963.195312 1102.113281 962.34375 1100.949219 961.734375 1099.574219 C 961.125 1098.199219 960.8125 1096.519531 960.8125 1094.535156 C 960.8125 1092.316406 961.234375 1090.402344 962.0625 1088.792969 C 962.902344 1087.1875 964.046875 1085.875 965.488281 1084.847656 C 966.9375 1083.824219 968.648438 1083.0625 970.632812 1082.566406 C 972.609375 1082.066406 974.738281 1081.816406 977.019531 1081.8125 C 979.648438 1081.8125 982.292969 1082.382812 984.949219 1083.519531 C 987.613281 1084.660156 989.96875 1086.136719 992.015625 1087.941406 L 987.542969 1094.34375 C 986.136719 1093.058594 984.398438 1091.964844 982.328125 1091.066406 C 980.253906 1090.160156 978.273438 1089.707031 976.40625 1089.707031 C 974.421875 1089.707031 972.84375 1090.042969 971.675781 1090.722656 C 970.507812 1091.394531 969.925781 1092.667969 969.925781 1094.535156 C 969.925781 1095.589844 970.261719 1096.414062 970.941406 1097.035156 C 971.613281 1097.644531 972.464844 1098.132812 973.496094 1098.480469 C 974.519531 1098.832031 975.617188 1099.121094 976.792969 1099.355469 C 977.960938 1099.585938 979.085938 1099.855469 980.136719 1100.136719 Z M 980.136719 1100.125 " fill-opacity="1" fill-rule="nonzero"/><path fill="#00446c" d="M 1058.878906 1065.886719 L 1067.996094 1065.886719 C 1067.996094 1065.886719 1068.023438 1106.730469 1068.023438 1106.730469 C 1068.023438 1110.003906 1067.425781 1112.875 1066.230469 1115.324219 C 1065.039062 1117.785156 1063.382812 1119.828125 1061.273438 1121.464844 C 1059.179688 1123.097656 1056.722656 1124.328125 1053.914062 1125.152344 C 1051.113281 1125.96875 1048.097656 1126.378906 1044.890625 1126.386719 C 1041.683594 1126.394531 1038.546875 1125.976562 1035.683594 1125.164062 C 1032.820312 1124.347656 1030.34375 1123.117188 1028.234375 1121.492188 C 1026.125 1119.855469 1024.472656 1117.8125 1023.277344 1115.359375 C 1022.074219 1112.910156 1021.476562 1110.039062 1021.472656 1106.761719 L 1021.445312 1065.914062 L 1030.5625 1065.914062 C 1030.5625 1065.914062 1030.589844 1106.757812 1030.589844 1106.757812 C 1030.589844 1108.746094 1030.96875 1110.457031 1031.730469 1111.886719 C 1032.492188 1113.320312 1033.515625 1114.5 1034.804688 1115.433594 C 1036.089844 1116.367188 1037.59375 1117.070312 1039.316406 1117.535156 C 1041.039062 1117.996094 1042.867188 1118.238281 1044.796875 1118.230469 C 1046.664062 1118.230469 1048.460938 1117.988281 1050.1875 1117.53125 C 1051.910156 1117.054688 1053.417969 1116.339844 1054.695312 1115.378906 C 1055.972656 1114.417969 1056.996094 1113.21875 1057.757812 1111.78125 C 1058.515625 1110.347656 1058.898438 1108.671875 1058.898438 1106.734375 L 1058.871094 1065.886719 Z M 1058.878906 1065.886719 " fill-opacity="1" fill-rule="nonzero"/><path fill="#00446c" d="M 1102.445312 1081.640625 C 1107.53125 1081.640625 1111.253906 1082.984375 1113.621094 1085.664062 C 1115.992188 1088.347656 1117.179688 1092.242188 1117.179688 1097.320312 L 1117.199219 1125.460938 L 1108.082031 1125.460938 C 1108.082031 1125.460938 1108.066406 1098.792969 1108.066406 1098.792969 C 1108.066406 1096.175781 1107.394531 1094.011719 1106.042969 1092.324219 C 1104.703125 1090.632812 1102.710938 1089.789062 1100.082031 1089.796875 C 1098.738281 1089.796875 1097.40625 1090.066406 1096.09375 1090.585938 C 1094.773438 1091.113281 1093.585938 1091.828125 1092.542969 1092.730469 C 1091.484375 1093.636719 1090.648438 1094.671875 1090.003906 1095.839844 C 1089.359375 1097 1089.035156 1098.257812 1089.035156 1099.601562 L 1089.046875 1125.480469 L 1079.929688 1125.480469 C 1079.929688 1125.480469 1079.902344 1082.53125 1079.902344 1082.53125 L 1087.886719 1082.53125 C 1087.886719 1082.53125 1089.027344 1089.445312 1089.027344 1089.445312 C 1090.722656 1087.03125 1092.632812 1085.121094 1094.769531 1083.726562 C 1096.902344 1082.332031 1099.457031 1081.640625 1102.4375 1081.640625 Z M 1102.445312 1081.640625 " fill-opacity="1" fill-rule="nonzero"/><path fill="#00446c" d="M 1156.8125 1098.703125 L 1156.824219 1117.28125 L 1182.15625 1117.269531 L 1182.15625 1125.425781 C 1182.15625 1125.425781 1147.714844 1125.445312 1147.714844 1125.445312 L 1147.679688 1065.832031 L 1180.203125 1065.8125 L 1180.203125 1073.96875 C 1180.203125 1073.96875 1156.804688 1073.984375 1156.804688 1073.984375 L 1156.816406 1090.8125 L 1176.539062 1090.800781 L 1176.539062 1098.6875 C 1176.539062 1098.6875 1156.824219 1098.703125 1156.824219 1098.703125 Z M 1168.78125 1043.382812 L 1174.746094 1047.679688 L 1164.84375 1059.867188 L 1159.933594 1057.058594 L 1168.777344 1043.382812 Z M 1168.78125 1043.382812 " fill-opacity="1" fill-rule="nonzero"/><path fill="#00446c" d="M 1197.824219 1082.464844 L 1206.859375 1096.664062 L 1215.800781 1082.457031 L 1225.699219 1082.457031 C 1225.699219 1082.457031 1211.953125 1103.144531 1211.953125 1103.144531 L 1226.257812 1125.398438 L 1216.609375 1125.398438 C 1216.609375 1125.398438 1206.867188 1109.714844 1206.867188 1109.714844 L 1197.144531 1125.417969 L 1187.324219 1125.417969 C 1187.324219 1125.417969 1201.6875 1103.152344 1201.6875 1103.152344 L 1188.175781 1082.46875 L 1197.824219 1082.46875 Z M 1197.824219 1082.464844 " fill-opacity="1" fill-rule="nonzero"/><path fill="#00446c" d="M 1234.539062 1065.777344 L 1243.835938 1065.777344 C 1243.835938 1065.777344 1243.835938 1075.417969 1243.835938 1075.417969 L 1234.539062 1075.417969 C 1234.539062 1075.417969 1234.539062 1065.777344 1234.539062 1065.777344 Z M 1234.632812 1082.4375 L 1243.75 1082.4375 C 1243.75 1082.4375 1243.78125 1125.382812 1243.78125 1125.382812 L 1234.660156 1125.382812 C 1234.660156 1125.382812 1234.632812 1082.4375 1234.632812 1082.4375 Z M 1234.632812 1082.4375 " fill-opacity="1" fill-rule="nonzero"/><path fill="#00446c" d="M 1272.09375 1118.09375 C 1272.796875 1118.09375 1273.660156 1118.003906 1274.675781 1117.824219 C 1275.707031 1117.652344 1276.695312 1117.445312 1277.65625 1117.207031 C 1278.617188 1116.980469 1279.457031 1116.753906 1280.15625 1116.546875 C 1280.863281 1116.339844 1281.269531 1116.210938 1281.394531 1116.15625 L 1283.410156 1122.726562 C 1282.882812 1122.960938 1282.140625 1123.257812 1281.179688 1123.605469 C 1280.21875 1123.957031 1279.175781 1124.3125 1278.070312 1124.664062 C 1276.957031 1125.015625 1275.832031 1125.308594 1274.691406 1125.542969 C 1273.558594 1125.769531 1272.542969 1125.894531 1271.675781 1125.894531 C 1267.816406 1125.894531 1264.804688 1125.046875 1262.640625 1123.351562 C 1260.476562 1121.664062 1259.394531 1118.890625 1259.394531 1115.03125 L 1259.378906 1088.902344 L 1251.402344 1088.902344 C 1251.402344 1088.902344 1251.402344 1082.421875 1251.402344 1082.421875 L 1259.46875 1082.421875 C 1259.46875 1082.421875 1259.460938 1069.707031 1259.460938 1069.707031 L 1268.484375 1069.707031 C 1268.484375 1069.707031 1268.492188 1082.414062 1268.492188 1082.414062 L 1279.449219 1082.414062 C 1279.449219 1082.414062 1279.449219 1088.890625 1279.449219 1088.890625 L 1268.492188 1088.890625 C 1268.492188 1088.890625 1268.503906 1113.972656 1268.503906 1113.972656 C 1268.503906 1115.140625 1268.8125 1116.121094 1269.425781 1116.90625 C 1270.035156 1117.695312 1270.929688 1118.085938 1272.101562 1118.085938 Z M 1272.09375 1118.09375 " fill-opacity="1" fill-rule="nonzero"/><path fill="#00446c" d="M 1306.785156 1081.515625 C 1312.394531 1081.515625 1316.863281 1082.902344 1320.199219 1085.675781 C 1323.53125 1088.449219 1325.199219 1092.324219 1325.199219 1097.289062 L 1325.199219 1110.257812 C 1325.207031 1112.777344 1324.71875 1115.023438 1323.722656 1117.015625 C 1322.734375 1119 1321.394531 1120.667969 1319.691406 1122.011719 C 1317.996094 1123.367188 1316.027344 1124.394531 1313.78125 1125.128906 C 1311.527344 1125.867188 1309.179688 1126.230469 1306.722656 1126.234375 C 1304.210938 1126.234375 1301.8125 1125.871094 1299.539062 1125.144531 C 1297.253906 1124.417969 1295.277344 1123.386719 1293.574219 1122.039062 C 1291.882812 1120.703125 1290.519531 1119.035156 1289.496094 1117.050781 C 1288.464844 1115.058594 1287.957031 1112.8125 1287.957031 1110.292969 L 1287.957031 1097.324219 C 1287.949219 1094.871094 1288.425781 1092.667969 1289.390625 1090.703125 C 1290.351562 1088.746094 1291.679688 1087.078125 1293.375 1085.703125 C 1295.0625 1084.324219 1297.054688 1083.292969 1299.328125 1082.582031 C 1301.605469 1081.878906 1304.09375 1081.53125 1306.785156 1081.53125 Z M 1316.085938 1097.316406 C 1316.085938 1096.085938 1315.820312 1095 1315.296875 1094.0625 C 1314.769531 1093.128906 1314.082031 1092.324219 1313.238281 1091.644531 C 1312.386719 1090.972656 1311.410156 1090.476562 1310.300781 1090.152344 C 1309.195312 1089.824219 1308.027344 1089.671875 1306.796875 1089.671875 C 1305.570312 1089.671875 1304.375 1089.832031 1303.199219 1090.160156 C 1302.03125 1090.484375 1300.996094 1090.984375 1300.089844 1091.652344 C 1299.183594 1092.332031 1298.449219 1093.132812 1297.890625 1094.066406 C 1297.34375 1095.007812 1297.070312 1096.09375 1297.070312 1097.320312 L 1297.070312 1110.332031 C 1297.074219 1111.625 1297.34375 1112.75 1297.863281 1113.71875 C 1298.394531 1114.679688 1299.09375 1115.496094 1299.972656 1116.136719 C 1300.851562 1116.773438 1301.867188 1117.261719 1303.042969 1117.585938 C 1304.210938 1117.914062 1305.4375 1118.066406 1306.722656 1118.066406 C 1307.953125 1118.066406 1309.132812 1117.90625 1310.273438 1117.578125 C 1311.410156 1117.253906 1312.40625 1116.765625 1313.253906 1116.128906 C 1314.101562 1115.484375 1314.785156 1114.671875 1315.3125 1113.710938 C 1315.832031 1112.742188 1316.09375 1111.609375 1316.09375 1110.320312 L 1316.09375 1097.308594 Z M 1316.085938 1097.316406 " fill-opacity="1" fill-rule="nonzero"/></svg>