<svg width="180" height="180" viewBox="0 0 180 180" fill="none" xmlns="http://www.w3.org/2000/svg">
  <rect width="180" height="180" rx="37" fill="#0a0b14"/>
  <g transform="translate(14, 24) scale(0.115)">
    <!-- I person figure (green) -->
    <path fill="#9abb57" d="M 255.273438 755.539062 C 278.164062 732.320312 372.28125 621.066406 270.816406 448.289062 C 270.34375 447.488281 270.296875 446.449219 270.75 445.46875 C 274.128906 438.292969 291.636719 408.910156 353.953125 403.425781 C 355.109375 403.324219 356.171875 403.707031 356.785156 404.488281 C 368.503906 419.582031 436.21875 572 263.609375 765.867188 C 262.570312 767.035156 260.964844 767.671875 259.558594 767.453125 L 253.007812 761.324219 C 250.371094 760.925781 253.207031 757.636719 255.28125 755.539062"/>
    <path fill="#9abb57" d="M 323.566406 358.574219 C 323.566406 386.417969 300.996094 408.988281 273.152344 408.988281 C 245.308594 408.988281 222.742188 386.417969 222.742188 358.574219 C 222.742188 330.734375 245.308594 308.164062 273.152344 308.164062 C 300.996094 308.164062 323.566406 330.734375 323.566406 358.574219"/>
    <!-- G letter (green) -->
    <path fill="#9abb57" d="M 550.007812 563.492188 L 677.136719 563.675781 L 676.910156 713.601562 C 636.859375 737.351562 605.429688 754.53125 551.742188 754.449219 C 476.277344 754.324219 417.578125 715.75 417.679688 643.832031 L 417.878906 510.113281 C 417.980469 441.226562 479.332031 399.785156 551.757812 399.898438 C 595.824219 399.957031 635.8125 413.699219 665.660156 442.613281 L 640.277344 481.070312 C 617.007812 460.765625 583.601562 447.046875 551.6875 447 C 509.140625 446.9375 470.613281 471.1875 470.558594 510.195312 L 470.359375 643.917969 C 470.296875 685.953125 506.734375 707.285156 551.8125 707.355469 C 582.203125 707.394531 601.457031 702.363281 624.265625 689.726562 L 624.382812 607.167969 L 549.929688 607.058594 L 549.992188 563.5 Z"/>
    <!-- S letter (dark blue) -->
    <path fill="#00446c" d="M 981.90625 655.816406 C 981.796875 723.6875 926.035156 753.996094 859.179688 753.894531 C 805.996094 753.816406 753.351562 732.464844 727.082031 691.402344 L 763.09375 659.035156 C 779.773438 685.402344 822.28125 706.734375 855.71875 706.785156 C 892.6875 706.839844 929.179688 693.722656 929.230469 655.734375 C 929.292969 616.226562 881.6875 607.546875 842.714844 595.332031 C 780.445312 575.988281 739.445312 553.644531 739.535156 493.875 C 739.632812 428.027344 793.867188 400.253906 860.21875 400.355469 C 908.84375 400.433594 945.28125 419.726562 972.597656 443.574219 L 942.652344 482.523438 C 925.460938 466.292969 890.539062 447.5 860.15625 447.453125 C 825.210938 447.402344 792.269531 459.507812 792.21875 493.949219 C 792.160156 529.914062 835.1875 540.105469 872.660156 550.796875 C 940.503906 569.636719 982.003906 590.46875 981.90625 655.808594"/>
    <!-- A letter (dark blue) -->
    <path fill="#00446c" d="M 1191.453125 402.871094 L 1305.917969 750.507812 L 1250.707031 750.425781 L 1221.464844 659.207031 L 1095.351562 659.023438 L 1065.839844 750.144531 L 1009.105469 750.0625 L 1128.644531 402.78125 Z M 1207.855469 616.140625 L 1158.953125 460.058594 L 1109.585938 615.992188 Z"/>
  </g>
</svg>