<svg xmlns="http://www.w3.org/2000/svg" xmlns:xlink="http://www.w3.org/1999/xlink" width="2000" zoomAndPan="magnify" viewBox="0 0 1500 1499.999933" height="2000" preserveAspectRatio="xMidYMid meet" version="1.0"><path fill="#7da1bd" d="M 764.164062 825.328125 C 934.328125 825.328125 1104.480469 825.539062 1274.636719 825.09375 C 1299.183594 825.035156 1322.332031 845.464844 1321.601562 872.167969 C 1320.804688 901.386719 1321.425781 930.648438 1321.417969 959.882812 C 1321.410156 986.367188 1301.570312 1006.1875 1274.9375 1006.199219 C 1207.640625 1006.234375 1140.351562 1006.207031 1073.070312 1006.207031 L 253.984375 1006.207031 C 230.734375 1006.207031 212.480469 992.097656 207.511719 970.136719 C 206.824219 967.085938 206.722656 963.847656 206.714844 960.695312 C 206.660156 930.75 206.660156 900.800781 206.6875 870.859375 C 206.699219 845.117188 226.429688 825.332031 252.109375 825.332031 C 422.796875 825.320312 593.484375 825.328125 764.171875 825.328125 " fill-opacity="1" fill-rule="nonzero"/><path fill="#9abb57" d="M 258.5625 755.628906 C 281.308594 732.558594 374.824219 622.015625 274.007812 450.34375 C 273.539062 449.546875 273.492188 448.515625 273.941406 447.542969 C 277.296875 440.414062 294.695312 411.21875 356.613281 405.769531 C 357.761719 405.667969 358.816406 406.046875 359.425781 406.824219 C 371.070312 421.820312 438.351562 573.261719 266.847656 765.890625 C 265.816406 767.050781 264.21875 767.683594 262.820312 767.46875 L 256.3125 761.375 C 253.691406 760.980469 256.511719 757.710938 258.570312 755.628906 " fill-opacity="1" fill-rule="nonzero"/><path fill="#9abb57" d="M 326.417969 361.207031 C 326.417969 388.871094 303.992188 411.292969 276.328125 411.292969 C 248.664062 411.292969 226.238281 388.871094 226.238281 361.207031 C 226.238281 333.539062 248.664062 311.117188 276.328125 311.117188 C 303.992188 311.117188 326.417969 333.539062 326.417969 361.207031 " fill-opacity="1" fill-rule="nonzero"/><path fill="#9abb57" d="M 551.410156 564.808594 L 677.726562 564.996094 L 677.5 713.960938 C 637.707031 737.558594 606.480469 754.628906 553.136719 754.546875 C 478.152344 754.421875 419.828125 716.09375 419.933594 644.636719 L 420.128906 511.773438 C 420.230469 443.324219 481.1875 402.152344 553.152344 402.261719 C 596.9375 402.324219 636.667969 415.976562 666.324219 444.703125 L 641.105469 482.914062 C 617.984375 462.742188 584.792969 449.109375 553.082031 449.0625 C 510.804688 449 472.523438 473.097656 472.46875 511.855469 L 472.273438 644.71875 C 472.210938 686.484375 508.417969 707.683594 553.207031 707.75 C 583.402344 707.792969 602.53125 702.792969 625.195312 690.238281 L 625.308594 608.207031 L 551.335938 608.097656 L 551.398438 564.816406 Z M 551.410156 564.808594 " fill-opacity="1" fill-rule="nonzero"/><path fill="#0f4463" d="M 980.546875 656.542969 C 980.4375 723.980469 925.035156 754.09375 858.605469 753.992188 C 805.761719 753.917969 753.453125 732.699219 727.351562 691.902344 L 763.132812 659.742188 C 779.707031 685.941406 821.941406 707.136719 855.167969 707.183594 C 891.898438 707.238281 928.160156 694.207031 928.207031 656.460938 C 928.269531 617.207031 880.96875 608.582031 842.246094 596.445312 C 780.375 577.226562 739.636719 555.027344 739.726562 495.640625 C 739.824219 430.214844 793.710938 402.617188 859.636719 402.71875 C 907.953125 402.792969 944.15625 421.964844 971.296875 445.660156 L 941.542969 484.363281 C 924.460938 468.234375 889.761719 449.5625 859.574219 449.511719 C 824.855469 449.464844 792.121094 461.492188 792.074219 495.714844 C 792.011719 531.449219 834.769531 541.574219 872 552.195312 C 939.410156 570.917969 980.644531 591.613281 980.546875 656.535156 " fill-opacity="1" fill-rule="nonzero"/><path fill="#0f4463" d="M 1188.75 405.214844 L 1302.484375 750.628906 L 1247.628906 750.546875 L 1218.570312 659.914062 L 1093.265625 659.730469 L 1063.945312 750.269531 L 1007.570312 750.1875 L 1126.347656 405.128906 Z M 1205.050781 617.125 L 1156.460938 462.039062 L 1107.410156 616.972656 Z M 1205.050781 617.125 " fill-opacity="1" fill-rule="nonzero"/><path fill="#0f4463" d="M 449.464844 867.074219 C 464.746094 867.074219 476.3125 875.445312 476.3125 890.730469 L 476.3125 900.835938 C 476.3125 915.457031 464.222656 922.898438 449.730469 922.898438 L 433.78125 922.898438 L 433.78125 957.460938 L 419.960938 957.460938 L 419.960938 867.085938 L 449.464844 867.085938 Z M 462.484375 890.730469 C 462.484375 883.554688 456.636719 879.433594 449.457031 879.433594 L 433.773438 879.433594 L 433.773438 910.53125 L 449.457031 910.53125 C 456.238281 910.53125 462.484375 907.746094 462.484375 900.828125 L 462.484375 890.726562 Z M 462.484375 890.730469 " fill-opacity="1" fill-rule="nonzero"/><path fill="#0f4463" d="M 526.542969 892.0625 L 523.746094 904.417969 C 522.285156 903.886719 519.488281 903.484375 517.101562 903.484375 C 510.457031 903.484375 504.609375 909.070312 504.609375 917.039062 L 504.609375 957.449219 L 490.78125 957.449219 L 490.78125 892.316406 L 500.75 892.316406 L 503.410156 903.210938 C 505.804688 896.703125 512.320312 890.984375 519.359375 890.984375 C 522.285156 890.984375 524.546875 891.25 526.539062 892.050781 " fill-opacity="1" fill-rule="nonzero"/><path fill="#0f4463" d="M 537.035156 867.074219 L 551.125 867.074219 L 551.125 881.691406 L 537.035156 881.691406 Z M 537.171875 892.328125 L 550.996094 892.328125 L 550.996094 957.449219 L 537.171875 957.449219 Z M 537.171875 892.328125 " fill-opacity="1" fill-rule="nonzero"/><path fill="#0f4463" d="M 625.6875 914.789062 L 625.6875 957.453125 L 611.855469 957.453125 L 611.855469 916.917969 C 611.855469 908.933594 607.734375 903.222656 599.769531 903.222656 C 591.800781 903.222656 583.019531 910.136719 583.019531 918.109375 L 583.019531 957.453125 L 569.195312 957.453125 L 569.195312 892.328125 L 581.292969 892.328125 L 583.019531 902.691406 C 588.066406 895.515625 594.316406 890.992188 603.355469 890.992188 C 618.636719 890.992188 625.6875 899.5 625.6875 914.78125 " fill-opacity="1" fill-rule="nonzero"/><path fill="#0f4463" d="M 680.699219 943.496094 L 683.765625 953.46875 C 680.699219 954.929688 671.144531 958.253906 665.949219 958.253906 C 654.386719 958.253906 647.339844 953.46875 647.339844 941.777344 L 647.339844 902.167969 L 635.242188 902.167969 L 635.242188 892.335938 L 647.476562 892.335938 L 647.476562 873.0625 L 661.167969 873.0625 L 661.167969 892.335938 L 677.789062 892.335938 L 677.789062 902.167969 L 661.167969 902.167969 L 661.167969 940.179688 C 661.167969 943.640625 663.160156 946.429688 666.621094 946.429688 C 671.007812 946.429688 680.039062 943.90625 680.707031 943.503906 " fill-opacity="1" fill-rule="nonzero"/><path fill="#0f4463" d="M 798.324219 920.238281 L 785.429688 934.0625 L 800.984375 949.617188 L 791.148438 958.914062 L 776.785156 944.035156 C 769.753906 953.332031 760.84375 958.785156 748.480469 958.785156 C 730.941406 958.785156 719.640625 951.207031 719.640625 934.996094 C 719.640625 922.367188 731.34375 914.390625 741.441406 906.28125 L 731.199219 894.984375 L 731.199219 882.628906 C 731.199219 872.121094 740.367188 865.742188 751.398438 865.742188 C 764.691406 865.742188 773.328125 872.386719 773.328125 885.144531 C 773.328125 894.714844 768.148438 901.628906 760.707031 907.34375 L 776.519531 924.753906 L 788.746094 911.464844 Z M 767.746094 933.929688 L 750.335938 914.78125 C 743.425781 920.898438 734.125 925.8125 734.125 934.457031 C 734.125 941.898438 739.039062 946.019531 747.550781 946.019531 C 756.585938 946.019531 760.980469 940.4375 767.753906 933.929688 M 743.5625 890.335938 L 751.667969 899.503906 C 756.191406 895.910156 760.835938 891.132812 760.835938 885.546875 C 760.835938 879.960938 757.511719 877.039062 751.796875 877.039062 C 746.609375 877.039062 743.554688 880.363281 743.554688 883.820312 L 743.554688 890.335938 Z M 743.5625 890.335938 " fill-opacity="1" fill-rule="nonzero"/><path fill="#0f4463" d="M 853.597656 894.714844 L 853.597656 929.808594 C 853.597656 941.109375 862.097656 946.421875 873.53125 946.421875 C 882.441406 946.421875 890.8125 944.027344 896.789062 938.707031 L 902.902344 948.941406 C 894.402344 956.519531 884.960938 958.777344 873.53125 958.777344 C 854.394531 958.777344 839.777344 948.941406 839.777344 929.804688 L 839.777344 894.710938 C 839.777344 876.636719 855.066406 865.734375 873.402344 865.734375 C 887.226562 865.734375 894.675781 869.589844 902.652344 877.960938 L 894.929688 887.394531 C 889.210938 881.953125 882.4375 878.097656 873.402344 878.097656 C 862.644531 878.097656 853.597656 884.210938 853.597656 894.710938 " fill-opacity="1" fill-rule="nonzero"/><path fill="#0f4463" d="M 969.351562 914.917969 L 969.351562 934.59375 C 969.351562 949.867188 956.328125 958.777344 941.304688 958.777344 C 926.285156 958.777344 912.863281 949.867188 912.863281 934.59375 L 912.863281 914.917969 C 912.863281 899.90625 925.21875 890.992188 941.441406 890.992188 C 957.664062 890.992188 969.351562 899.902344 969.351562 914.917969 M 955.539062 914.917969 C 955.539062 907.480469 948.757812 903.351562 941.449219 903.351562 C 934.140625 903.351562 926.691406 907.472656 926.691406 914.917969 L 926.691406 934.59375 C 926.691406 942.296875 933.605469 946.28125 941.3125 946.28125 C 949.023438 946.28125 955.539062 942.296875 955.539062 934.59375 Z M 955.539062 914.917969 " fill-opacity="1" fill-rule="nonzero"/><path fill="#0f4463" d="M 1040.1875 914.789062 L 1040.1875 934.195312 C 1040.1875 948.808594 1030.085938 958.785156 1015.199219 958.785156 C 1007.222656 958.785156 1001.109375 956.785156 996.996094 950.542969 L 996.996094 986.832031 L 983.167969 986.832031 L 983.167969 892.335938 L 993.40625 892.335938 L 996.191406 900.175781 C 1001.109375 894.199219 1006.828125 891.003906 1015.199219 891.003906 C 1030.085938 891.003906 1040.1875 900.441406 1040.1875 914.792969 M 1026.359375 915.320312 C 1026.359375 906.683594 1019.722656 903.222656 1011.875 903.222656 C 1004.03125 903.222656 996.996094 907.871094 996.996094 914.917969 L 996.996094 934.191406 C 996.996094 942.027344 1003.90625 946.414062 1011.875 946.550781 C 1019.1875 946.550781 1026.359375 942.429688 1026.359375 934.191406 L 1026.359375 915.3125 Z M 1026.359375 915.320312 " fill-opacity="1" fill-rule="nonzero"/><path fill="#0f4463" d="M 1070.492188 959.050781 L 1047.898438 892.328125 L 1062.382812 892.328125 L 1077.402344 943.105469 L 1092.152344 892.328125 L 1106.644531 892.328125 L 1081.785156 965.695312 C 1076.734375 980.316406 1064.511719 985.5 1051.480469 985.765625 L 1049.898438 975.136719 C 1056.40625 975 1066.105469 971.28125 1068.898438 964.234375 L 1070.5 959.050781 Z M 1070.492188 959.050781 " fill-opacity="1" fill-rule="nonzero"/><path fill="#0f4463" d="M 255.910156 1064.484375 L 264.96875 1064.484375 C 264.96875 1064.484375 265.003906 1123.707031 265.003906 1123.707031 L 255.945312 1123.707031 C 255.945312 1123.707031 255.929688 1099.058594 255.929688 1099.058594 L 228.667969 1099.070312 L 228.683594 1123.726562 L 219.621094 1123.726562 C 219.621094 1123.726562 219.589844 1064.503906 219.589844 1064.503906 L 228.648438 1064.503906 C 228.648438 1064.503906 228.660156 1090.980469 228.660156 1090.980469 L 255.921875 1090.964844 Z M 255.910156 1064.484375 " fill-opacity="1" fill-rule="nonzero"/><path fill="#0f4463" d="M 293.28125 1080.140625 C 298.332031 1080.140625 302.292969 1081.410156 305.175781 1083.96875 C 308.054688 1086.519531 309.492188 1090.351562 309.492188 1095.460938 L 309.511719 1123.679688 L 302.191406 1123.679688 C 302.191406 1123.679688 300.792969 1118.023438 300.792969 1118.023438 C 299.347656 1120.582031 297.558594 1122.28125 295.445312 1123.121094 C 293.324219 1123.964844 290.902344 1124.382812 288.171875 1124.390625 C 283.875 1124.390625 280.578125 1123.148438 278.28125 1120.652344 C 275.988281 1118.152344 274.84375 1114.789062 274.835938 1110.554688 L 274.835938 1101.839844 C 274.835938 1101.839844 300.433594 1097.378906 300.433594 1097.378906 L 300.433594 1095.460938 C 300.433594 1092.734375 299.730469 1090.78125 298.339844 1089.621094 C 296.945312 1088.46875 294.878906 1087.890625 292.148438 1087.890625 C 291.105469 1087.890625 289.972656 1088.019531 288.753906 1088.277344 C 287.53125 1088.542969 286.34375 1088.871094 285.175781 1089.28125 C 284.019531 1089.691406 282.914062 1090.128906 281.867188 1090.597656 C 280.824219 1091.0625 279.957031 1091.5 279.257812 1091.902344 L 276.375 1085.808594 C 277.421875 1085.105469 278.613281 1084.425781 279.945312 1083.753906 C 281.273438 1083.085938 282.703125 1082.480469 284.207031 1081.925781 C 285.714844 1081.375 287.257812 1080.9375 288.820312 1080.617188 C 290.390625 1080.296875 291.871094 1080.132812 293.261719 1080.132812 Z M 300.171875 1103.65625 L 283.886719 1106.453125 L 283.886719 1110.109375 C 283.886719 1112.144531 284.480469 1113.726562 285.675781 1114.859375 C 286.871094 1115.992188 288.480469 1116.550781 290.511719 1116.550781 C 291.554688 1116.550781 292.648438 1116.40625 293.78125 1116.113281 C 294.914062 1115.820312 295.957031 1115.390625 296.917969 1114.8125 C 297.875 1114.230469 298.660156 1113.535156 299.265625 1112.714844 C 299.871094 1111.898438 300.179688 1110.941406 300.179688 1109.835938 L 300.179688 1103.65625 Z M 300.171875 1103.65625 " fill-opacity="1" fill-rule="nonzero"/><path fill="#0f4463" d="M 345.808594 1080.980469 L 345.808594 1085.589844 C 345.808594 1085.589844 327.625 1116.085938 327.625 1116.085938 L 347.136719 1116.074219 L 347.136719 1123.652344 C 347.136719 1123.652344 317.609375 1123.671875 317.609375 1123.671875 L 317.609375 1118.1875 C 317.609375 1118.1875 335.882812 1088.121094 335.882812 1088.121094 L 317.9375 1088.136719 L 317.9375 1081 C 317.9375 1081 345.808594 1080.980469 345.808594 1080.980469 Z M 345.808594 1080.980469 " fill-opacity="1" fill-rule="nonzero"/><path fill="#0f4463" d="M 394.65625 1064.402344 C 397.902344 1064.402344 400.898438 1064.78125 403.625 1065.527344 C 406.355469 1066.277344 408.722656 1067.4375 410.730469 1069 C 412.734375 1070.566406 414.304688 1072.539062 415.4375 1074.921875 C 416.570312 1077.300781 417.140625 1080.113281 417.140625 1083.367188 L 417.15625 1104.707031 C 417.15625 1107.898438 416.546875 1110.683594 415.332031 1113.0625 C 414.113281 1115.445312 412.460938 1117.421875 410.375 1118.992188 C 408.285156 1120.5625 405.832031 1121.722656 403.011719 1122.480469 C 400.195312 1123.234375 397.191406 1123.617188 394 1123.617188 L 375.710938 1123.632812 L 375.675781 1064.402344 L 394.660156 1064.386719 Z M 408.082031 1083.359375 C 408.082031 1081.503906 407.726562 1079.894531 407.03125 1078.535156 C 406.335938 1077.179688 405.371094 1076.046875 404.152344 1075.152344 C 402.929688 1074.253906 401.503906 1073.589844 399.882812 1073.152344 C 398.257812 1072.722656 396.511719 1072.503906 394.65625 1072.503906 L 384.550781 1072.503906 C 384.550781 1072.503906 384.578125 1115.535156 384.578125 1115.535156 L 393.988281 1115.535156 C 395.902344 1115.527344 397.703125 1115.328125 399.390625 1114.914062 C 401.074219 1114.511719 402.570312 1113.855469 403.871094 1112.953125 C 405.175781 1112.0625 406.207031 1110.929688 406.960938 1109.5625 C 407.71875 1108.199219 408.09375 1106.5625 408.09375 1104.652344 Z M 408.082031 1083.359375 " fill-opacity="1" fill-rule="nonzero"/><path fill="#0f4463" d="M 445.371094 1116.367188 C 447.871094 1116.367188 450.296875 1115.914062 452.644531 1115.015625 C 455 1114.113281 456.8125 1113.078125 458.089844 1111.910156 L 462.101562 1118.359375 C 459.664062 1120.5625 456.992188 1122.132812 454.089844 1123.066406 C 451.191406 1123.992188 448.109375 1124.464844 444.859375 1124.472656 C 442.078125 1124.472656 439.472656 1124.15625 437.0625 1123.515625 C 434.65625 1122.882812 432.566406 1121.871094 430.792969 1120.515625 C 429.019531 1119.148438 427.613281 1117.449219 426.5625 1115.417969 C 425.519531 1113.386719 424.992188 1110.976562 424.992188 1108.1875 L 424.992188 1095.46875 C 424.988281 1093.035156 425.464844 1090.859375 426.417969 1088.933594 C 427.375 1087.015625 428.683594 1085.40625 430.335938 1084.097656 C 431.988281 1082.792969 433.953125 1081.789062 436.214844 1081.089844 C 438.480469 1080.390625 440.890625 1080.042969 443.449219 1080.042969 C 445.828125 1080.042969 448.074219 1080.40625 450.195312 1081.128906 C 452.316406 1081.851562 454.160156 1082.863281 455.726562 1084.171875 C 457.296875 1085.476562 458.53125 1087.058594 459.433594 1088.914062 C 460.332031 1090.777344 460.785156 1092.871094 460.785156 1095.183594 L 460.785156 1101.976562 C 460.785156 1101.976562 434.054688 1105.914062 434.054688 1105.914062 L 434.054688 1108.171875 C 434.054688 1109.507812 434.386719 1110.683594 435.058594 1111.699219 C 435.726562 1112.714844 436.597656 1113.570312 437.667969 1114.265625 C 438.742188 1114.960938 439.949219 1115.480469 441.285156 1115.828125 C 442.621094 1116.183594 443.988281 1116.351562 445.378906 1116.351562 Z M 443.265625 1088.148438 C 442.042969 1088.148438 440.882812 1088.320312 439.777344 1088.675781 C 438.671875 1089.023438 437.691406 1089.511719 436.816406 1090.148438 C 435.945312 1090.796875 435.261719 1091.558594 434.769531 1092.460938 C 434.277344 1093.363281 434.035156 1094.390625 434.035156 1095.550781 L 434.035156 1099.734375 C 434.035156 1099.734375 451.449219 1097.285156 451.449219 1097.285156 L 451.449219 1094.847656 C 451.449219 1092.582031 450.695312 1090.898438 449.179688 1089.792969 C 447.671875 1088.695312 445.691406 1088.140625 443.257812 1088.140625 Z M 443.265625 1088.148438 " fill-opacity="1" fill-rule="nonzero"/><path fill="#0f4463" d="M 484.804688 1072.445312 L 484.804688 1064.339844 C 484.804688 1064.339844 530.261719 1064.3125 530.261719 1064.3125 L 530.261719 1072.5 C 530.261719 1072.5 511.976562 1072.511719 511.976562 1072.511719 L 512.011719 1123.558594 L 502.960938 1123.558594 C 502.960938 1123.558594 502.925781 1072.519531 502.925781 1072.519531 Z M 484.804688 1072.445312 " fill-opacity="1" fill-rule="nonzero"/><path fill="#0f4463" d="M 560.0625 1080.847656 L 569.121094 1080.847656 C 569.121094 1080.847656 569.140625 1108.710938 569.140625 1108.710938 C 569.140625 1111.207031 568.652344 1113.433594 567.660156 1115.375 C 566.679688 1117.328125 565.355469 1118.964844 563.707031 1120.296875 C 562.054688 1121.640625 560.117188 1122.648438 557.914062 1123.34375 C 555.703125 1124.046875 553.355469 1124.394531 550.859375 1124.394531 C 548.363281 1124.394531 545.996094 1124.054688 543.757812 1123.351562 C 541.519531 1122.65625 539.574219 1121.648438 537.921875 1120.308594 C 536.265625 1118.980469 534.957031 1117.339844 534 1115.390625 C 533.039062 1113.445312 532.5625 1111.222656 532.554688 1108.730469 L 532.535156 1080.863281 L 541.59375 1080.863281 C 541.59375 1080.863281 541.613281 1108.726562 541.613281 1108.726562 C 541.613281 1111.222656 542.527344 1113.113281 544.363281 1114.386719 C 546.191406 1115.664062 548.363281 1116.296875 550.851562 1116.296875 C 552.074219 1116.296875 553.234375 1116.140625 554.339844 1115.820312 C 555.445312 1115.5 556.414062 1115 557.257812 1114.339844 C 558.097656 1113.671875 558.78125 1112.875 559.304688 1111.945312 C 559.832031 1111.015625 560.089844 1109.941406 560.089844 1108.71875 L 560.070312 1080.847656 Z M 560.0625 1080.847656 " fill-opacity="1" fill-rule="nonzero"/><path fill="#0f4463" d="M 597.734375 1098.238281 C 599.660156 1098.765625 601.40625 1099.359375 602.980469 1100.019531 C 604.558594 1100.695312 605.914062 1101.5 607.054688 1102.457031 C 608.1875 1103.417969 609.082031 1104.542969 609.722656 1105.851562 C 610.363281 1107.15625 610.683594 1108.675781 610.683594 1110.425781 C 610.683594 1112.859375 610.253906 1114.953125 609.378906 1116.699219 C 608.507812 1118.441406 607.304688 1119.867188 605.769531 1120.972656 C 604.238281 1122.070312 602.433594 1122.886719 600.375 1123.414062 C 598.316406 1123.933594 596.0625 1124.199219 593.628906 1124.199219 C 590.429688 1124.199219 587.386719 1123.5625 584.480469 1122.289062 C 581.574219 1121.011719 579.019531 1119.21875 576.8125 1116.890625 L 581.421875 1110.613281 C 582.117188 1111.371094 582.976562 1112.09375 583.996094 1112.796875 C 585.011719 1113.492188 586.101562 1114.128906 587.261719 1114.707031 C 588.421875 1115.289062 589.597656 1115.753906 590.789062 1116.101562 C 591.976562 1116.449219 593.09375 1116.617188 594.140625 1116.617188 C 595.183594 1116.617188 596.1875 1116.5625 597.148438 1116.449219 C 598.101562 1116.324219 598.933594 1116.101562 599.632812 1115.746094 C 600.328125 1115.398438 600.894531 1114.890625 601.328125 1114.21875 C 601.761719 1113.546875 601.976562 1112.695312 601.976562 1111.652344 C 601.976562 1110.429688 601.628906 1109.488281 600.925781 1108.820312 C 600.230469 1108.152344 599.34375 1107.597656 598.265625 1107.167969 C 597.195312 1106.738281 596.015625 1106.40625 594.738281 1106.171875 C 593.464844 1105.941406 592.242188 1105.648438 591.082031 1105.308594 C 589.164062 1104.78125 587.441406 1104.203125 585.898438 1103.566406 C 584.355469 1102.933594 583.054688 1102.128906 581.976562 1101.171875 C 580.898438 1100.21875 580.058594 1099.058594 579.445312 1097.691406 C 578.835938 1096.328125 578.53125 1094.65625 578.53125 1092.6875 C 578.53125 1090.480469 578.9375 1088.578125 579.777344 1086.980469 C 580.609375 1085.386719 581.742188 1084.082031 583.183594 1083.058594 C 584.621094 1082.042969 586.320312 1081.285156 588.292969 1080.792969 C 590.257812 1080.296875 592.371094 1080.050781 594.636719 1080.042969 C 597.25 1080.042969 599.875 1080.609375 602.515625 1081.742188 C 605.15625 1082.875 607.496094 1084.34375 609.53125 1086.136719 L 605.097656 1092.496094 C 603.699219 1091.21875 601.972656 1090.132812 599.910156 1089.242188 C 597.851562 1088.339844 595.894531 1087.890625 594.03125 1087.890625 C 592.058594 1087.890625 590.488281 1088.222656 589.328125 1088.898438 C 588.167969 1089.566406 587.589844 1090.828125 587.589844 1092.6875 C 587.589844 1093.738281 587.925781 1094.554688 588.601562 1095.167969 C 589.269531 1095.777344 590.113281 1096.261719 591.136719 1096.609375 C 592.160156 1096.957031 593.253906 1097.242188 594.417969 1097.476562 C 595.585938 1097.707031 596.691406 1097.972656 597.742188 1098.253906 Z M 597.734375 1098.238281 " fill-opacity="1" fill-rule="nonzero"/><path fill="#0f4463" d="M 658.035156 1064.238281 C 660.535156 1064.238281 662.859375 1064.5625 665.003906 1065.234375 C 667.152344 1065.910156 669.007812 1066.890625 670.578125 1068.195312 C 672.144531 1069.503906 673.378906 1071.128906 674.28125 1073.066406 C 675.179688 1075.015625 675.632812 1077.234375 675.636719 1079.730469 L 675.636719 1086.347656 C 675.636719 1088.730469 675.179688 1090.824219 674.253906 1092.625 C 673.324219 1094.425781 672.078125 1095.933594 670.507812 1097.15625 C 668.9375 1098.375 667.097656 1099.289062 664.980469 1099.902344 C 662.859375 1100.519531 660.617188 1100.816406 658.226562 1100.824219 L 647.777344 1100.824219 C 647.777344 1100.824219 647.789062 1123.476562 647.789062 1123.476562 L 638.730469 1123.476562 C 638.730469 1123.476562 638.695312 1064.25 638.695312 1064.25 L 658.03125 1064.238281 Z M 666.578125 1079.730469 C 666.578125 1077.355469 665.753906 1075.527344 664.09375 1074.246094 C 662.4375 1072.96875 660.417969 1072.335938 658.042969 1072.335938 L 647.769531 1072.335938 C 647.769531 1072.335938 647.78125 1092.71875 647.78125 1092.71875 L 658.058594 1092.71875 C 659.164062 1092.714844 660.234375 1092.597656 661.277344 1092.363281 C 662.320312 1092.140625 663.234375 1091.75 664.019531 1091.234375 C 664.804688 1090.714844 665.425781 1090.046875 665.894531 1089.234375 C 666.359375 1088.414062 666.59375 1087.460938 666.59375 1086.355469 L 666.59375 1079.738281 Z M 666.578125 1079.730469 " fill-opacity="1" fill-rule="nonzero"/><path fill="#0f4463" d="M 703.855469 1079.886719 C 705.828125 1079.886719 707.394531 1080.121094 708.554688 1080.578125 L 706.734375 1088.59375 C 706.269531 1088.414062 705.628906 1088.273438 704.816406 1088.15625 C 704.003906 1088.039062 703.195312 1087.984375 702.382812 1087.984375 C 701.277344 1087.984375 700.234375 1088.203125 699.242188 1088.640625 C 698.261719 1089.082031 697.386719 1089.691406 696.632812 1090.476562 C 695.875 1091.261719 695.28125 1092.195312 694.84375 1093.273438 C 694.414062 1094.351562 694.195312 1095.558594 694.195312 1096.894531 L 694.207031 1123.441406 L 685.148438 1123.441406 C 685.148438 1123.441406 685.121094 1080.765625 685.121094 1080.765625 L 691.652344 1080.765625 C 691.652344 1080.765625 693.398438 1087.816406 693.398438 1087.816406 C 693.800781 1086.777344 694.351562 1085.78125 695.046875 1084.800781 C 695.742188 1083.824219 696.554688 1082.976562 697.484375 1082.253906 C 698.410156 1081.539062 699.40625 1080.964844 700.484375 1080.527344 C 701.554688 1080.105469 702.675781 1079.878906 703.835938 1079.878906 Z M 703.855469 1079.886719 " fill-opacity="1" fill-rule="nonzero"/><path fill="#0f4463" d="M 731.027344 1079.875 C 736.601562 1079.875 741.050781 1081.25 744.359375 1084.007812 C 747.667969 1086.765625 749.328125 1090.613281 749.328125 1095.542969 L 749.328125 1108.433594 C 749.332031 1110.9375 748.84375 1113.167969 747.859375 1115.144531 C 746.871094 1117.117188 745.539062 1118.773438 743.855469 1120.113281 C 742.167969 1121.457031 740.210938 1122.480469 737.972656 1123.210938 C 735.734375 1123.9375 733.402344 1124.300781 730.96875 1124.308594 C 728.46875 1124.308594 726.089844 1123.945312 723.824219 1123.222656 C 721.558594 1122.5 719.582031 1121.476562 717.894531 1120.140625 C 716.210938 1118.808594 714.859375 1117.152344 713.84375 1115.179688 C 712.828125 1113.199219 712.316406 1110.96875 712.316406 1108.464844 L 712.316406 1095.578125 C 712.308594 1093.144531 712.785156 1090.953125 713.742188 1089.003906 C 714.695312 1087.058594 716.019531 1085.398438 717.699219 1084.035156 C 719.382812 1082.664062 721.355469 1081.640625 723.621094 1080.929688 C 725.886719 1080.234375 728.355469 1079.886719 731.023438 1079.886719 Z M 740.273438 1095.566406 C 740.273438 1094.34375 740.007812 1093.265625 739.480469 1092.332031 C 738.964844 1091.402344 738.273438 1090.605469 737.433594 1089.929688 C 736.589844 1089.261719 735.621094 1088.769531 734.515625 1088.449219 C 733.410156 1088.121094 732.257812 1087.972656 731.027344 1087.972656 C 729.808594 1087.972656 728.621094 1088.128906 727.460938 1088.457031 C 726.300781 1088.777344 725.269531 1089.273438 724.371094 1089.9375 C 723.46875 1090.613281 722.746094 1091.410156 722.195312 1092.339844 C 721.640625 1093.273438 721.367188 1094.351562 721.367188 1095.570312 L 721.367188 1108.5 C 721.375 1109.78125 721.632812 1110.902344 722.160156 1111.863281 C 722.679688 1112.820312 723.382812 1113.628906 724.253906 1114.265625 C 725.121094 1114.898438 726.136719 1115.382812 727.304688 1115.703125 C 728.464844 1116.03125 729.683594 1116.183594 730.960938 1116.183594 C 732.183594 1116.183594 733.355469 1116.023438 734.488281 1115.699219 C 735.621094 1115.378906 736.609375 1114.890625 737.449219 1114.257812 C 738.289062 1113.617188 738.96875 1112.8125 739.496094 1111.855469 C 740.019531 1110.894531 740.28125 1109.769531 740.28125 1108.488281 L 740.28125 1095.558594 Z M 740.273438 1095.566406 " fill-opacity="1" fill-rule="nonzero"/><path fill="#0f4463" d="M 769.207031 1124.4375 L 754.375 1080.726562 L 763.871094 1080.726562 C 763.871094 1080.726562 773.738281 1113.984375 773.738281 1113.984375 L 783.382812 1080.707031 L 792.875 1080.707031 C 792.875 1080.707031 776.617188 1128.789062 776.617188 1128.789062 C 775.804688 1131.171875 774.710938 1133.183594 773.355469 1134.847656 C 771.988281 1136.5 770.441406 1137.855469 768.695312 1138.898438 C 766.957031 1139.949219 765.066406 1140.703125 763.039062 1141.171875 C 761.007812 1141.636719 758.910156 1141.894531 756.769531 1141.957031 L 755.71875 1134.992188 C 756.761719 1134.992188 757.929688 1134.835938 759.207031 1134.511719 C 760.488281 1134.191406 761.703125 1133.722656 762.863281 1133.113281 C 764.023438 1132.507812 765.078125 1131.765625 766.042969 1130.898438 C 766.996094 1130.023438 767.707031 1129 768.167969 1127.847656 L 769.214844 1124.445312 Z M 769.207031 1124.4375 " fill-opacity="1" fill-rule="nonzero"/><path fill="#0f4463" d="M 818.148438 1116.132812 C 820.652344 1116.132812 823.074219 1115.683594 825.421875 1114.785156 C 827.777344 1113.882812 829.589844 1112.847656 830.867188 1111.679688 L 834.886719 1118.125 C 832.449219 1120.328125 829.773438 1121.898438 826.867188 1122.832031 C 823.96875 1123.761719 820.886719 1124.230469 817.636719 1124.238281 C 814.855469 1124.238281 812.25 1123.925781 809.839844 1123.285156 C 807.433594 1122.648438 805.335938 1121.640625 803.5625 1120.28125 C 801.789062 1118.917969 800.382812 1117.21875 799.332031 1115.1875 C 798.289062 1113.152344 797.765625 1110.746094 797.765625 1107.953125 L 797.765625 1095.238281 C 797.757812 1092.800781 798.234375 1090.625 799.191406 1088.703125 C 800.144531 1086.785156 801.449219 1085.175781 803.105469 1083.863281 C 804.757812 1082.5625 806.722656 1081.558594 808.980469 1080.855469 C 811.246094 1080.160156 813.660156 1079.8125 816.210938 1079.8125 C 818.59375 1079.8125 820.835938 1080.175781 822.960938 1080.898438 C 825.082031 1081.621094 826.929688 1082.628906 828.5 1083.941406 C 830.066406 1085.242188 831.304688 1086.824219 832.203125 1088.679688 C 833.105469 1090.542969 833.554688 1092.636719 833.554688 1094.949219 L 833.554688 1101.746094 C 833.554688 1101.746094 806.824219 1105.683594 806.824219 1105.683594 L 806.824219 1107.941406 C 806.824219 1109.277344 807.160156 1110.453125 807.828125 1111.46875 C 808.496094 1112.484375 809.371094 1113.335938 810.445312 1114.03125 C 811.519531 1114.730469 812.726562 1115.246094 814.0625 1115.59375 C 815.394531 1115.949219 816.765625 1116.121094 818.15625 1116.121094 Z M 816.046875 1087.925781 C 814.828125 1087.925781 813.667969 1088.09375 812.5625 1088.449219 C 811.457031 1088.796875 810.472656 1089.289062 809.601562 1089.921875 C 808.726562 1090.570312 808.050781 1091.335938 807.554688 1092.234375 C 807.0625 1093.136719 806.816406 1094.167969 806.816406 1095.328125 L 806.816406 1099.507812 C 806.816406 1099.507812 824.242188 1097.058594 824.242188 1097.058594 L 824.242188 1094.625 C 824.242188 1092.359375 823.476562 1090.671875 821.96875 1089.566406 C 820.460938 1088.46875 818.492188 1087.917969 816.046875 1087.917969 Z M 816.046875 1087.925781 " fill-opacity="1" fill-rule="nonzero"/><path fill="#0f4463" d="M 858.980469 1087.898438 C 856.484375 1087.898438 854.425781 1088.550781 852.800781 1089.855469 C 851.175781 1091.164062 850.363281 1093.039062 850.363281 1095.476562 L 850.363281 1108.542969 C 850.371094 1111.214844 851.246094 1113.140625 852.984375 1114.332031 C 854.730469 1115.519531 856.933594 1116.113281 859.609375 1116.113281 C 861.695312 1116.113281 863.660156 1115.792969 865.488281 1115.152344 C 867.316406 1114.511719 869.132812 1113.460938 870.933594 1112.011719 L 874.507812 1118.800781 C 872.242188 1120.949219 869.847656 1122.390625 867.324219 1123.113281 C 864.792969 1123.84375 862.050781 1124.203125 859.097656 1124.210938 C 856.484375 1124.210938 854.082031 1123.898438 851.90625 1123.257812 C 849.722656 1122.621094 847.855469 1121.640625 846.285156 1120.335938 C 844.714844 1119.035156 843.496094 1117.390625 842.621094 1115.417969 C 841.746094 1113.4375 841.3125 1111.152344 841.3125 1108.535156 L 841.3125 1095.46875 C 841.304688 1093.035156 841.746094 1090.84375 842.65625 1088.894531 C 843.550781 1086.949219 844.789062 1085.289062 846.394531 1083.925781 C 847.988281 1082.554688 849.859375 1081.53125 852.007812 1080.820312 C 854.15625 1080.125 856.476562 1079.777344 858.972656 1079.777344 C 860.828125 1079.777344 862.488281 1079.902344 863.941406 1080.167969 C 865.386719 1080.425781 866.722656 1080.816406 867.945312 1081.339844 C 869.167969 1081.867188 870.3125 1082.515625 871.382812 1083.296875 C 872.460938 1084.074219 873.546875 1084.988281 874.652344 1086.039062 L 869.957031 1092.488281 C 868.445312 1091.035156 866.746094 1089.910156 864.863281 1089.097656 C 862.972656 1088.285156 861.015625 1087.882812 858.980469 1087.882812 Z M 858.980469 1087.898438 " fill-opacity="1" fill-rule="nonzero"/><path fill="#0f4463" d="M 898.714844 1116.085938 C 899.410156 1116.085938 900.269531 1115.996094 901.28125 1115.820312 C 902.304688 1115.648438 903.285156 1115.445312 904.242188 1115.207031 C 905.195312 1114.980469 906.027344 1114.757812 906.722656 1114.550781 C 907.425781 1114.347656 907.828125 1114.21875 907.953125 1114.164062 L 909.957031 1120.691406 C 909.433594 1120.921875 908.695312 1121.21875 907.738281 1121.566406 C 906.785156 1121.914062 905.746094 1122.265625 904.648438 1122.617188 C 903.542969 1122.964844 902.425781 1123.257812 901.292969 1123.488281 C 900.167969 1123.714844 899.15625 1123.835938 898.296875 1123.835938 C 894.464844 1123.835938 891.46875 1122.996094 889.320312 1121.3125 C 887.171875 1119.632812 886.09375 1116.878906 886.09375 1113.042969 L 886.078125 1087.085938 L 878.152344 1087.085938 C 878.152344 1087.085938 878.152344 1080.644531 878.152344 1080.644531 L 886.167969 1080.644531 C 886.167969 1080.644531 886.160156 1068.011719 886.160156 1068.011719 L 895.125 1068.011719 C 895.125 1068.011719 895.132812 1080.636719 895.132812 1080.636719 L 906.019531 1080.636719 C 906.019531 1080.636719 906.019531 1087.070312 906.019531 1087.070312 L 895.132812 1087.070312 C 895.132812 1087.070312 895.144531 1111.992188 895.144531 1111.992188 C 895.144531 1113.152344 895.453125 1114.128906 896.058594 1114.90625 C 896.667969 1115.691406 897.554688 1116.078125 898.722656 1116.078125 Z M 898.714844 1116.085938 " fill-opacity="1" fill-rule="nonzero"/><path fill="#0f4463" d="M 933.1875 1079.742188 C 938.761719 1079.742188 943.203125 1081.121094 946.519531 1083.878906 C 949.828125 1086.632812 951.484375 1090.484375 951.484375 1095.414062 L 951.484375 1108.300781 C 951.492188 1110.804688 951.007812 1113.035156 950.019531 1115.015625 C 949.035156 1116.988281 947.707031 1118.644531 946.011719 1119.980469 C 944.328125 1121.324219 942.371094 1122.347656 940.140625 1123.078125 C 937.902344 1123.808594 935.570312 1124.171875 933.125 1124.179688 C 930.628906 1124.179688 928.25 1123.816406 925.988281 1123.09375 C 923.71875 1122.371094 921.753906 1121.347656 920.0625 1120.007812 C 918.382812 1118.679688 917.027344 1117.019531 916.007812 1115.050781 C 914.984375 1113.070312 914.480469 1110.839844 914.480469 1108.335938 L 914.480469 1095.449219 C 914.472656 1093.011719 914.945312 1090.824219 915.90625 1088.871094 C 916.863281 1086.929688 918.179688 1085.269531 919.863281 1083.90625 C 921.542969 1082.535156 923.519531 1081.511719 925.777344 1080.800781 C 928.042969 1080.105469 930.511719 1079.757812 933.1875 1079.757812 Z M 942.425781 1095.441406 C 942.425781 1094.222656 942.160156 1093.144531 941.640625 1092.207031 C 941.113281 1091.28125 940.433594 1090.480469 939.59375 1089.808594 C 938.746094 1089.136719 937.777344 1088.648438 936.671875 1088.328125 C 935.574219 1088 934.414062 1087.847656 933.195312 1087.847656 C 931.972656 1087.847656 930.785156 1088.003906 929.621094 1088.332031 C 928.460938 1088.652344 927.429688 1089.152344 926.527344 1089.8125 C 925.628906 1090.488281 924.898438 1091.289062 924.347656 1092.214844 C 923.800781 1093.148438 923.527344 1094.226562 923.527344 1095.449219 L 923.527344 1108.378906 C 923.535156 1109.660156 923.800781 1110.777344 924.320312 1111.742188 C 924.84375 1112.695312 925.539062 1113.507812 926.414062 1114.140625 C 927.285156 1114.777344 928.296875 1115.261719 929.460938 1115.582031 C 930.621094 1115.910156 931.84375 1116.058594 933.121094 1116.058594 C 934.339844 1116.058594 935.515625 1115.902344 936.644531 1115.574219 C 937.777344 1115.253906 938.769531 1114.769531 939.605469 1114.136719 C 940.453125 1113.492188 941.128906 1112.6875 941.652344 1111.734375 C 942.171875 1110.773438 942.433594 1109.644531 942.433594 1108.363281 L 942.433594 1095.433594 Z M 942.425781 1095.441406 " fill-opacity="1" fill-rule="nonzero"/><path fill="#0f4463" d="M 978.789062 1098.007812 C 980.710938 1098.53125 982.457031 1099.125 984.035156 1099.789062 C 985.609375 1100.464844 986.960938 1101.269531 988.101562 1102.222656 C 989.238281 1103.183594 990.125 1104.3125 990.773438 1105.621094 C 991.414062 1106.925781 991.738281 1108.445312 991.738281 1110.191406 C 991.738281 1112.628906 991.304688 1114.722656 990.433594 1116.46875 C 989.558594 1118.207031 988.359375 1119.632812 986.824219 1120.738281 C 985.289062 1121.835938 983.488281 1122.65625 981.429688 1123.179688 C 979.367188 1123.699219 977.117188 1123.964844 974.679688 1123.964844 C 971.480469 1123.964844 968.4375 1123.332031 965.539062 1122.054688 C 962.632812 1120.78125 960.074219 1118.984375 957.863281 1116.660156 L 962.476562 1110.382812 C 963.179688 1111.140625 964.039062 1111.863281 965.046875 1112.566406 C 966.0625 1113.261719 967.15625 1113.894531 968.316406 1114.476562 C 969.476562 1115.054688 970.648438 1115.519531 971.835938 1115.867188 C 973.03125 1116.214844 974.148438 1116.386719 975.199219 1116.386719 C 976.242188 1116.386719 977.238281 1116.332031 978.195312 1116.214844 C 979.15625 1116.09375 979.980469 1115.867188 980.683594 1115.511719 C 981.378906 1115.164062 981.945312 1114.660156 982.375 1113.984375 C 982.8125 1113.316406 983.023438 1112.464844 983.023438 1111.417969 C 983.023438 1110.199219 982.675781 1109.257812 981.980469 1108.589844 C 981.285156 1107.921875 980.398438 1107.367188 979.320312 1106.9375 C 978.25 1106.507812 977.074219 1106.171875 975.800781 1105.941406 C 974.515625 1105.710938 973.296875 1105.417969 972.136719 1105.074219 C 970.21875 1104.550781 968.492188 1103.96875 966.949219 1103.335938 C 965.410156 1102.699219 964.105469 1101.894531 963.027344 1100.941406 C 961.957031 1099.984375 961.109375 1098.824219 960.503906 1097.460938 C 959.898438 1096.097656 959.589844 1094.425781 959.589844 1092.453125 C 959.589844 1090.25 960.003906 1088.347656 960.832031 1086.75 C 961.664062 1085.152344 962.804688 1083.851562 964.234375 1082.828125 C 965.675781 1081.8125 967.375 1081.054688 969.34375 1080.5625 C 971.308594 1080.066406 973.425781 1079.820312 975.691406 1079.8125 C 978.304688 1079.8125 980.929688 1080.378906 983.570312 1081.511719 C 986.21875 1082.644531 988.558594 1084.109375 990.589844 1085.90625 L 986.148438 1092.261719 C 984.75 1090.988281 983.023438 1089.902344 980.964844 1089.007812 C 978.902344 1088.109375 976.9375 1087.65625 975.082031 1087.65625 C 973.113281 1087.65625 971.542969 1087.992188 970.382812 1088.667969 C 969.222656 1089.335938 968.644531 1090.597656 968.644531 1092.453125 C 968.644531 1093.503906 968.976562 1094.324219 969.652344 1094.9375 C 970.320312 1095.542969 971.167969 1096.027344 972.191406 1096.375 C 973.207031 1096.726562 974.296875 1097.011719 975.464844 1097.242188 C 976.625 1097.476562 977.742188 1097.742188 978.789062 1098.019531 Z M 978.789062 1098.007812 " fill-opacity="1" fill-rule="nonzero"/><path fill="#0f4463" d="M 1057.027344 1063.992188 L 1066.085938 1063.992188 C 1066.085938 1063.992188 1066.113281 1104.570312 1066.113281 1104.570312 C 1066.113281 1107.824219 1065.519531 1110.675781 1064.332031 1113.113281 C 1063.144531 1115.554688 1061.5 1117.585938 1059.40625 1119.210938 C 1057.324219 1120.835938 1054.882812 1122.054688 1052.09375 1122.875 C 1049.308594 1123.6875 1046.316406 1124.097656 1043.128906 1124.101562 C 1039.941406 1124.109375 1036.824219 1123.695312 1033.980469 1122.886719 C 1031.136719 1122.078125 1028.671875 1120.855469 1026.578125 1119.238281 C 1024.484375 1117.613281 1022.839844 1115.582031 1021.652344 1113.144531 C 1020.457031 1110.710938 1019.863281 1107.859375 1019.859375 1104.605469 L 1019.832031 1064.019531 L 1028.890625 1064.019531 C 1028.890625 1064.019531 1028.917969 1104.597656 1028.917969 1104.597656 C 1028.917969 1106.574219 1029.292969 1108.273438 1030.050781 1109.695312 C 1030.808594 1111.121094 1031.824219 1112.292969 1033.105469 1113.222656 C 1034.382812 1114.148438 1035.875 1114.84375 1037.589844 1115.308594 C 1039.300781 1115.765625 1041.117188 1116.003906 1043.035156 1115.996094 C 1044.890625 1115.996094 1046.675781 1115.757812 1048.390625 1115.300781 C 1050.101562 1114.832031 1051.601562 1114.121094 1052.871094 1113.167969 C 1054.140625 1112.210938 1055.15625 1111.015625 1055.914062 1109.589844 C 1056.664062 1108.164062 1057.046875 1106.5 1057.046875 1104.578125 L 1057.019531 1063.992188 Z M 1057.027344 1063.992188 " fill-opacity="1" fill-rule="nonzero"/><path fill="#0f4463" d="M 1100.3125 1079.640625 C 1105.367188 1079.640625 1109.066406 1080.980469 1111.421875 1083.640625 C 1113.773438 1086.308594 1114.953125 1090.175781 1114.953125 1095.222656 L 1114.972656 1123.179688 L 1105.914062 1123.179688 C 1105.914062 1123.179688 1105.902344 1096.683594 1105.902344 1096.683594 C 1105.902344 1094.085938 1105.230469 1091.933594 1103.886719 1090.257812 C 1102.558594 1088.578125 1100.578125 1087.738281 1097.964844 1087.746094 C 1096.628906 1087.746094 1095.304688 1088.011719 1094.003906 1088.53125 C 1092.691406 1089.054688 1091.511719 1089.765625 1090.476562 1090.660156 C 1089.425781 1091.558594 1088.59375 1092.589844 1087.953125 1093.75 C 1087.308594 1094.902344 1086.988281 1096.152344 1086.988281 1097.488281 L 1087.003906 1123.203125 L 1077.941406 1123.203125 C 1077.941406 1123.203125 1077.914062 1080.527344 1077.914062 1080.527344 L 1085.851562 1080.527344 C 1085.851562 1080.527344 1086.984375 1087.398438 1086.984375 1087.398438 C 1088.667969 1084.996094 1090.5625 1083.101562 1092.6875 1081.714844 C 1094.808594 1080.332031 1097.34375 1079.640625 1100.304688 1079.640625 Z M 1100.3125 1079.640625 " fill-opacity="1" fill-rule="nonzero"/><path fill="#0f4463" d="M 1154.332031 1096.59375 L 1154.347656 1115.054688 L 1179.511719 1115.042969 L 1179.511719 1123.148438 C 1179.511719 1123.148438 1145.292969 1123.167969 1145.292969 1123.167969 L 1145.257812 1063.9375 L 1177.574219 1063.917969 L 1177.574219 1072.019531 C 1177.574219 1072.019531 1154.324219 1072.035156 1154.324219 1072.035156 L 1154.339844 1088.757812 L 1173.933594 1088.742188 L 1173.933594 1096.582031 C 1173.933594 1096.582031 1154.347656 1096.59375 1154.347656 1096.59375 Z M 1166.222656 1041.628906 L 1172.152344 1045.898438 L 1162.3125 1058.007812 L 1157.4375 1055.21875 Z M 1166.222656 1041.628906 " fill-opacity="1" fill-rule="nonzero"/><path fill="#0f4463" d="M 1195.082031 1080.460938 L 1204.058594 1094.570312 L 1212.941406 1080.453125 L 1222.78125 1080.453125 C 1222.78125 1080.453125 1209.121094 1101.007812 1209.121094 1101.007812 L 1223.332031 1123.121094 L 1213.746094 1123.121094 C 1213.746094 1123.121094 1204.066406 1107.539062 1204.066406 1107.539062 L 1194.40625 1123.140625 L 1184.652344 1123.140625 C 1184.652344 1123.140625 1198.921875 1101.015625 1198.921875 1101.015625 L 1185.496094 1080.46875 L 1195.082031 1080.46875 Z M 1195.082031 1080.460938 " fill-opacity="1" fill-rule="nonzero"/><path fill="#0f4463" d="M 1231.5625 1063.882812 L 1240.796875 1063.882812 C 1240.796875 1063.882812 1240.796875 1073.460938 1240.796875 1073.460938 L 1231.5625 1073.460938 C 1231.5625 1073.460938 1231.5625 1063.882812 1231.5625 1063.882812 Z M 1231.65625 1080.433594 L 1240.714844 1080.433594 C 1240.714844 1080.433594 1240.742188 1123.105469 1240.742188 1123.105469 L 1231.683594 1123.105469 C 1231.683594 1123.105469 1231.65625 1080.433594 1231.65625 1080.433594 Z M 1231.65625 1080.433594 " fill-opacity="1" fill-rule="nonzero"/><path fill="#0f4463" d="M 1268.878906 1115.863281 C 1269.574219 1115.863281 1270.433594 1115.773438 1271.445312 1115.59375 C 1272.46875 1115.425781 1273.449219 1115.21875 1274.40625 1114.980469 C 1275.359375 1114.757812 1276.191406 1114.53125 1276.886719 1114.328125 C 1277.589844 1114.121094 1277.992188 1113.992188 1278.117188 1113.9375 L 1280.121094 1120.464844 C 1279.597656 1120.699219 1278.859375 1120.992188 1277.90625 1121.339844 C 1276.949219 1121.6875 1275.914062 1122.042969 1274.8125 1122.390625 C 1273.707031 1122.738281 1272.589844 1123.03125 1271.457031 1123.261719 C 1270.332031 1123.488281 1269.320312 1123.613281 1268.460938 1123.613281 C 1264.628906 1123.613281 1261.632812 1122.773438 1259.484375 1121.085938 C 1257.335938 1119.410156 1256.257812 1116.652344 1256.257812 1112.820312 L 1256.242188 1086.859375 L 1248.316406 1086.859375 C 1248.316406 1086.859375 1248.316406 1080.417969 1248.316406 1080.417969 L 1256.332031 1080.417969 C 1256.332031 1080.417969 1256.324219 1067.785156 1256.324219 1067.785156 L 1265.289062 1067.785156 C 1265.289062 1067.785156 1265.296875 1080.414062 1265.296875 1080.414062 L 1276.183594 1080.414062 C 1276.183594 1080.414062 1276.183594 1086.847656 1276.183594 1086.847656 L 1265.296875 1086.847656 C 1265.296875 1086.847656 1265.3125 1111.769531 1265.3125 1111.769531 C 1265.3125 1112.929688 1265.617188 1113.902344 1266.226562 1114.679688 C 1266.832031 1115.464844 1267.71875 1115.855469 1268.886719 1115.855469 Z M 1268.878906 1115.863281 " fill-opacity="1" fill-rule="nonzero"/><path fill="#0f4463" d="M 1303.34375 1079.519531 C 1308.917969 1079.519531 1313.359375 1080.898438 1316.675781 1083.652344 C 1319.984375 1086.410156 1321.640625 1090.257812 1321.640625 1095.191406 L 1321.640625 1108.078125 C 1321.648438 1110.582031 1321.164062 1112.8125 1320.175781 1114.789062 C 1319.195312 1116.761719 1317.863281 1118.417969 1316.171875 1119.757812 C 1314.484375 1121.101562 1312.527344 1122.125 1310.296875 1122.855469 C 1308.058594 1123.585938 1305.726562 1123.945312 1303.285156 1123.953125 C 1300.785156 1123.953125 1298.40625 1123.589844 1296.148438 1122.867188 C 1293.875 1122.144531 1291.910156 1121.121094 1290.21875 1119.785156 C 1288.539062 1118.453125 1287.183594 1116.796875 1286.167969 1114.824219 C 1285.144531 1112.847656 1284.636719 1110.613281 1284.636719 1108.113281 L 1284.636719 1095.222656 C 1284.632812 1092.789062 1285.101562 1090.597656 1286.0625 1088.648438 C 1287.019531 1086.703125 1288.335938 1085.046875 1290.019531 1083.679688 C 1291.699219 1082.308594 1293.679688 1081.285156 1295.9375 1080.578125 C 1298.203125 1079.878906 1300.671875 1079.53125 1303.34375 1079.53125 Z M 1312.589844 1095.21875 C 1312.589844 1093.996094 1312.324219 1092.917969 1311.804688 1091.984375 C 1311.28125 1091.054688 1310.597656 1090.257812 1309.757812 1089.582031 C 1308.914062 1088.914062 1307.945312 1088.421875 1306.839844 1088.101562 C 1305.738281 1087.773438 1304.578125 1087.625 1303.359375 1087.625 C 1302.136719 1087.625 1300.949219 1087.78125 1299.785156 1088.109375 C 1298.625 1088.429688 1297.59375 1088.925781 1296.695312 1089.589844 C 1295.792969 1090.265625 1295.0625 1091.0625 1294.511719 1091.988281 C 1293.964844 1092.925781 1293.691406 1094.003906 1293.691406 1095.222656 L 1293.691406 1108.152344 C 1293.699219 1109.433594 1293.964844 1110.554688 1294.484375 1111.515625 C 1295.007812 1112.472656 1295.703125 1113.28125 1296.578125 1113.917969 C 1297.449219 1114.550781 1298.460938 1115.035156 1299.628906 1115.355469 C 1300.785156 1115.683594 1302.007812 1115.835938 1303.285156 1115.835938 C 1304.503906 1115.835938 1305.679688 1115.675781 1306.8125 1115.351562 C 1307.945312 1115.027344 1308.933594 1114.542969 1309.773438 1113.910156 C 1310.617188 1113.269531 1311.292969 1112.464844 1311.820312 1111.507812 C 1312.335938 1110.546875 1312.597656 1109.421875 1312.597656 1108.136719 L 1312.597656 1095.210938 Z M 1312.589844 1095.21875 " fill-opacity="1" fill-rule="nonzero"/></svg>